G04 Layer_Color=0*
%FSLAX25Y25*%
%MOIN*%
G70*
G01*
G75*
%ADD33C,0.00600*%
%ADD35C,0.00500*%
%ADD69C,0.02400*%
%ADD70R,0.02000X0.02000*%
D33*
X390000Y312000D02*
G03*
X394500Y307500I4500J0D01*
G01*
X399000Y312000D02*
G03*
X394500Y316500I-4500J0D01*
G01*
X388000Y312000D02*
G03*
X394500Y305500I6500J0D01*
G01*
X401000Y312000D02*
G03*
X394500Y318500I-6500J0D01*
G01*
X386000Y312000D02*
G03*
X394500Y303500I8500J0D01*
G01*
X403000Y312000D02*
G03*
X394500Y320500I-8500J0D01*
G01*
X418500Y312000D02*
G03*
X423000Y307500I4500J0D01*
G01*
X427500Y312000D02*
G03*
X423000Y316500I-4500J0D01*
G01*
X416500Y312000D02*
G03*
X423000Y305500I6500J0D01*
G01*
X429500Y312000D02*
G03*
X423000Y318500I-6500J0D01*
G01*
X414500Y312000D02*
G03*
X423000Y303500I8500J0D01*
G01*
X431500Y312000D02*
G03*
X423000Y320500I-8500J0D01*
G01*
X458500Y480500D02*
G03*
X467000Y489000I0J8500D01*
G01*
X458500Y497500D02*
G03*
X450000Y489000I0J-8500D01*
G01*
X458500Y482500D02*
G03*
X465000Y489000I0J6500D01*
G01*
X458500Y495500D02*
G03*
X452000Y489000I0J-6500D01*
G01*
X458500Y484500D02*
G03*
X463000Y489000I0J4500D01*
G01*
X458500Y493500D02*
G03*
X454000Y489000I0J-4500D01*
G01*
D35*
X124846Y303793D02*
G03*
X127995Y303793I1575J0D01*
G01*
X187665Y638244D02*
G03*
X187665Y638244I-8803J0D01*
G01*
X200122Y643756D02*
G03*
X198153Y645724I-1969J-0D01*
G01*
X198547Y631945D02*
G03*
X200122Y633520I0J1575D01*
G01*
X196578D02*
G03*
X198153Y631945I1575J0D01*
G01*
Y645724D02*
G03*
X196578Y644150I-0J-1575D01*
G01*
X187111Y596509D02*
G03*
X187111Y596509I-8803J0D01*
G01*
X199568Y602021D02*
G03*
X197599Y603989I-1969J-0D01*
G01*
X197993Y590210D02*
G03*
X199568Y591785I0J1575D01*
G01*
X196024D02*
G03*
X197599Y590210I1575J0D01*
G01*
Y603989D02*
G03*
X196024Y602415I-0J-1575D01*
G01*
X187489Y552611D02*
G03*
X187489Y552611I-8803J0D01*
G01*
X199946Y558123D02*
G03*
X197977Y560091I-1969J-0D01*
G01*
X198371Y546312D02*
G03*
X199946Y547887I0J1575D01*
G01*
X196402D02*
G03*
X197977Y546312I1575J0D01*
G01*
Y560091D02*
G03*
X196402Y558517I-0J-1575D01*
G01*
X127995Y303793D02*
Y315604D01*
X124846Y303793D02*
Y315604D01*
X127995D01*
X119334Y341864D02*
X150830D01*
X121696Y299069D02*
Y315604D01*
Y299069D02*
X131145D01*
Y315604D01*
X127995D02*
X131145D01*
X121696D02*
X124846D01*
X150830Y299069D02*
Y341864D01*
X119334Y299069D02*
Y341864D01*
Y299069D02*
X121696D01*
X131145D02*
X150830D01*
X177681Y629583D02*
X196972Y632732D01*
X178468Y629189D02*
X198941Y631945D01*
X178075Y646905D02*
X196578Y644937D01*
X180830Y646905D02*
X198941Y645724D01*
X200122Y633520D02*
Y643756D01*
X198153Y631945D02*
X198547D01*
X196578Y633520D02*
Y644150D01*
X155240Y622496D02*
X206421D01*
X155240D02*
Y653598D01*
X206421D01*
Y622496D02*
Y653598D01*
X177127Y587848D02*
X196418Y590997D01*
X177914Y587454D02*
X198387Y590210D01*
X177521Y605170D02*
X196024Y603202D01*
X180276Y605170D02*
X198387Y603989D01*
X199568Y591785D02*
Y602021D01*
X197599Y590210D02*
X197993D01*
X196024Y591785D02*
Y602415D01*
X154686Y580761D02*
X205867D01*
X154686D02*
Y611863D01*
X205867D01*
Y580761D02*
Y611863D01*
X177505Y543950D02*
X196796Y547099D01*
X178292Y543556D02*
X198765Y546312D01*
X177899Y561272D02*
X196402Y559304D01*
X180654Y561272D02*
X198765Y560091D01*
X199946Y547887D02*
Y558123D01*
X197977Y546312D02*
X198371D01*
X196402Y547887D02*
Y558517D01*
X155064Y536863D02*
X206245D01*
X155064D02*
Y567965D01*
X206245D01*
Y536863D02*
Y567965D01*
X463718Y306748D02*
Y314622D01*
X462537Y306748D02*
Y314622D01*
X465293Y306748D02*
Y314622D01*
X461356Y306748D02*
Y314622D01*
X479073Y306748D02*
Y314622D01*
X465293D02*
X479073D01*
X463718D02*
X465293D01*
X462537D02*
X463718D01*
X461356D02*
X462537D01*
X459387D02*
X461356D01*
X459387Y306748D02*
Y314622D01*
Y306748D02*
X461356D01*
X462537D01*
X463718D01*
X465293D01*
X479073D01*
X486159Y302417D02*
Y319346D01*
X452301D02*
X486159D01*
X452301Y302417D02*
Y319346D01*
Y302417D02*
X486159D01*
X463120Y340767D02*
Y348641D01*
X461939Y340767D02*
Y348641D01*
X464695Y340767D02*
Y348641D01*
X460758Y340767D02*
Y348641D01*
X478475Y340767D02*
Y348641D01*
X464695D02*
X478475D01*
X463120D02*
X464695D01*
X461939D02*
X463120D01*
X460758D02*
X461939D01*
X458789D02*
X460758D01*
X458789Y340767D02*
Y348641D01*
Y340767D02*
X460758D01*
X461939D01*
X463120D01*
X464695D01*
X478475D01*
X485561Y336436D02*
Y353365D01*
X451703D02*
X485561D01*
X451703Y336436D02*
Y353365D01*
Y336436D02*
X485561D01*
D69*
X394000Y338500D02*
Y342500D01*
Y374500D02*
Y378500D01*
X422500Y338000D02*
Y342000D01*
Y374000D02*
Y378000D01*
X477500Y489000D02*
X481500D01*
X513500D02*
X517500D01*
D70*
X266980Y537294D02*
D03*
Y547294D02*
D03*
X256980Y537294D02*
D03*
Y547294D02*
D03*
X246980Y537294D02*
D03*
Y547294D02*
D03*
X236980Y537294D02*
D03*
Y547294D02*
D03*
X226980D02*
D03*
Y537294D02*
D03*
X522849Y392845D02*
D03*
Y372845D02*
D03*
Y382845D02*
D03*
X505303Y392678D02*
D03*
Y372678D02*
D03*
Y382678D02*
D03*
X488498Y392149D02*
D03*
Y372149D02*
D03*
Y382149D02*
D03*
X469527Y392140D02*
D03*
Y372140D02*
D03*
Y382140D02*
D03*
M02*
