M48
;Layer_Color=9474304
;FILE_FORMAT=2:5
INCH,LZ
;TYPE=PLATED
T1F00S00C0.02362
T2F00S00C0.03150
T3F00S00C0.03200
T4F00S00C0.03543
T5F00S00C0.03937
T6F00S00C0.04000
T7F00S00C0.04331
T8F00S00C0.05512
T9F00S00C0.05906
T10F00S00C0.06000
T11F00S00C0.08661
T12F00S00C0.12992
T13F00S00C0.13000
T14F00S00C0.13000
%
T01
X0226248Y0302836
X0258635Y0303566
X0291004Y0302261
X0443213Y0533046
X0213545Y0596821
T02
X046923Y0310685
X0477104
X0461356
X0460758Y0344704
X0468632
X0476506
T03
X03945Y0307
X0423
X02995Y03715
Y03915
X0257364Y0446655
X0237364
X023592Y0356932
X021592
X0195877Y035839
X0175877
X0334Y03715
X0351Y0372
Y0392
X0334Y03915
X0394Y03785
X04225Y0378
Y0338
X0423Y0317
X03945
X0394Y03385
X04775Y0489
X05175
X04635
X04535
X0257643Y0479301
X0237643
X044Y0641
Y0661
X0483Y06615
Y06415
T04
X012634Y058061
Y0590453
Y0600295
Y0610138
T05
X0173674Y031426
X0183674
X0205651Y0313861
X0215651
X0237203Y0314305
X0247203
X0270085Y0313418
X0280085
X030208Y0316068
X031208
X03345Y03155
X03445
X03595Y0316
X03695
X0395Y04055
X0405
X0415
X0425
X0435
X0445
X0455
X0465
Y04655
X0455
X0445
X0435
X0425
X0415
X0405
X0395
X0475
X0485
X0495
X0505
X0515
X0525
Y04055
X0515
X0505
X0495
X0485
X0475
X04665Y0653
X04565
X0418Y06535
X0408
T06
X0469527Y037214
Y038214
Y039214
X0488498Y0392149
Y0382149
Y0372149
X0505303Y0372678
Y0382678
Y0392678
X0522849Y0392845
Y0382845
Y0372845
X026698Y0537294
Y0547294
X025698
Y0537294
X024698
Y0547294
X023698
Y0537294
X022698
Y0547294
T07
X0135082Y0304975
Y032466
X0120121Y032899
Y031403
X0146893
Y0332927
T08
X0123083Y0396465
X0163241
X0203398
Y0476465
X0173477
X0153398
T09
X0485372Y0310685
X0453088
X045249Y0344704
X0484774
T10
X03035Y0408
X03135
X03235
T11
X0158213Y0552414
X0176717
X0176339Y0596312
X0157835
X0158389Y0638047
X0176893
T12
X0504761Y0309063
X014052Y0366359
X0126381Y0646453
X0504761Y0654801
T13
X052Y05835
T14
X052Y05245
M30
