G04 Layer_Color=16711935*
%FSLAX25Y25*%
%MOIN*%
G70*
G01*
G75*
%ADD51C,0.07100*%
%ADD52O,0.06506X0.12411*%
%ADD53P,0.05845X8X292.5*%
%ADD54C,0.14600*%
%ADD55C,0.06506*%
%ADD56P,0.05845X8X22.5*%
%ADD57C,0.08868*%
%ADD58C,0.04931*%
%ADD59O,0.13593X0.07097*%
%ADD60O,0.13591X0.26583*%
%ADD61C,0.05915*%
%ADD62O,0.09459X0.18318*%
%ADD63O,0.05325X0.10050*%
%ADD64P,0.07144X8X22.5*%
%ADD65O,0.12600X0.06600*%
%ADD66C,0.13592*%
%ADD67C,0.04362*%
D51*
X313500Y408000D02*
D03*
X323500D02*
D03*
X303500D02*
D03*
D52*
X369500Y316000D02*
D03*
X359500D02*
D03*
X344500Y315500D02*
D03*
X334500D02*
D03*
X456500Y653000D02*
D03*
X466500D02*
D03*
X408000Y653500D02*
D03*
X418000D02*
D03*
X183674Y314260D02*
D03*
X173674D02*
D03*
X215651Y313861D02*
D03*
X205651D02*
D03*
X247203Y314305D02*
D03*
X237203D02*
D03*
X280085Y313418D02*
D03*
X270085D02*
D03*
X312080Y316068D02*
D03*
X302080D02*
D03*
D53*
X351000Y372000D02*
D03*
Y392000D02*
D03*
X334000Y371500D02*
D03*
Y391500D02*
D03*
X299500Y371500D02*
D03*
Y391500D02*
D03*
X483000Y641500D02*
D03*
Y661500D02*
D03*
X440000Y641000D02*
D03*
Y661000D02*
D03*
X394000Y378500D02*
D03*
Y338500D02*
D03*
X422500Y378000D02*
D03*
Y338000D02*
D03*
X394500Y307000D02*
D03*
Y317000D02*
D03*
X423000Y307000D02*
D03*
Y317000D02*
D03*
D54*
X520000Y524500D02*
D03*
Y583500D02*
D03*
D55*
X525000Y405500D02*
D03*
X515000D02*
D03*
X505000D02*
D03*
X495000D02*
D03*
X485000D02*
D03*
X475000D02*
D03*
X465000D02*
D03*
X455000D02*
D03*
X445000D02*
D03*
X435000D02*
D03*
X425000D02*
D03*
X415000D02*
D03*
X405000D02*
D03*
X395000D02*
D03*
X525000Y465500D02*
D03*
X515000D02*
D03*
X505000D02*
D03*
X495000D02*
D03*
X485000D02*
D03*
X475000D02*
D03*
X465000D02*
D03*
X455000D02*
D03*
X445000D02*
D03*
X435000D02*
D03*
X425000D02*
D03*
X415000D02*
D03*
X405000D02*
D03*
X395000D02*
D03*
D56*
X195877Y358390D02*
D03*
X175877D02*
D03*
X517500Y489000D02*
D03*
X477500D02*
D03*
X463500D02*
D03*
X453500D02*
D03*
X237364Y446655D02*
D03*
X257364D02*
D03*
X235920Y356932D02*
D03*
X215920D02*
D03*
X237643Y479301D02*
D03*
X257643D02*
D03*
D57*
X123083Y396465D02*
D03*
X163241D02*
D03*
X203398D02*
D03*
X153398Y476465D02*
D03*
X173477D02*
D03*
X203398D02*
D03*
D58*
X135082Y324660D02*
D03*
Y304975D02*
D03*
D59*
X146893Y314030D02*
D03*
Y332927D02*
D03*
X120121Y328990D02*
D03*
Y314030D02*
D03*
D60*
X158389Y638047D02*
D03*
X176893D02*
D03*
X157835Y596312D02*
D03*
X176339D02*
D03*
X158213Y552414D02*
D03*
X176717D02*
D03*
D61*
X126340Y580610D02*
D03*
Y590453D02*
D03*
Y600295D02*
D03*
Y610138D02*
D03*
D62*
X453088Y310685D02*
D03*
X485372D02*
D03*
X452490Y344704D02*
D03*
X484774D02*
D03*
D63*
X461356Y310685D02*
D03*
X469230D02*
D03*
X477104D02*
D03*
X460758Y344704D02*
D03*
X468632D02*
D03*
X476506D02*
D03*
D64*
X266980Y547294D02*
D03*
Y537294D02*
D03*
X256980Y547294D02*
D03*
Y537294D02*
D03*
X246980Y547294D02*
D03*
Y537294D02*
D03*
X236980Y547294D02*
D03*
Y537294D02*
D03*
X226980Y547294D02*
D03*
Y537294D02*
D03*
D65*
X522849Y392845D02*
D03*
Y382845D02*
D03*
Y372845D02*
D03*
X505303Y392678D02*
D03*
Y382678D02*
D03*
Y372678D02*
D03*
X488498Y392149D02*
D03*
Y382149D02*
D03*
Y372149D02*
D03*
X469527Y392140D02*
D03*
Y382140D02*
D03*
Y372140D02*
D03*
D66*
X504761Y309063D02*
D03*
Y654801D02*
D03*
X126381Y646453D02*
D03*
X140520Y366359D02*
D03*
D67*
X291004Y302261D02*
D03*
X258635Y303566D02*
D03*
X226248Y302836D02*
D03*
X443213Y533046D02*
D03*
X213545Y596821D02*
D03*
M02*
