G04 Layer_Physical_Order=1*
G04 Layer_Color=255*
%FSLAX25Y25*%
%MOIN*%
G70*
G01*
G75*
%ADD10C,0.10000*%
%ADD11R,0.27559X0.25591*%
%ADD12R,0.25591X0.27559*%
%ADD13C,0.01000*%
%ADD14C,0.05000*%
%ADD15C,0.01200*%
%ADD16C,0.06500*%
%ADD17O,0.05905X0.11811*%
%ADD18P,0.05196X8X292.5*%
%ADD19C,0.14000*%
%ADD20C,0.05905*%
%ADD21P,0.05196X8X22.5*%
%ADD22C,0.08268*%
%ADD23C,0.04331*%
%ADD24O,0.12993X0.06497*%
%ADD25O,0.12992X0.25983*%
%ADD26C,0.05315*%
%ADD27O,0.08859X0.17718*%
%ADD28O,0.04725X0.09450*%
%ADD29P,0.06494X8X22.5*%
%ADD30O,0.12000X0.06000*%
%ADD31C,0.12992*%
%ADD32C,0.03762*%
G36*
X308387Y611981D02*
X291946Y603757D01*
X290751D01*
Y588978D01*
X289751D01*
Y603757D01*
X276455D01*
Y596010D01*
X271637Y593600D01*
X271242Y549739D01*
X270741Y549533D01*
X268980Y551294D01*
X267480D01*
Y547294D01*
Y543294D01*
X268980D01*
X270700Y545014D01*
X271198Y544805D01*
X271153Y539828D01*
X270652Y539622D01*
X268980Y541294D01*
X267480D01*
Y537294D01*
Y533294D01*
X268980D01*
X270609Y534923D01*
X271107Y534714D01*
X271006Y523464D01*
X242191D01*
Y530010D01*
X243107Y530761D01*
X243512Y530357D01*
X250448D01*
X253829Y533738D01*
X254395Y533879D01*
X254980Y533294D01*
X256480D01*
Y537294D01*
Y541294D01*
X254980D01*
X254395Y540709D01*
X253829Y540850D01*
X252385Y542294D01*
X253829Y543738D01*
X254395Y543879D01*
X254980Y543294D01*
X256480D01*
Y547294D01*
Y551294D01*
X254980D01*
X254395Y550709D01*
X253829Y550850D01*
X250448Y554231D01*
X243512D01*
X243107Y553827D01*
X241969Y554761D01*
X240417Y555591D01*
X238732Y556102D01*
X236980Y556274D01*
X235228Y556102D01*
X233543Y555591D01*
X231991Y554761D01*
X230853Y553827D01*
X230449Y554231D01*
X229190D01*
X226822Y556600D01*
X226353Y556985D01*
X225887Y557373D01*
X225863Y557386D01*
X225841Y557404D01*
X225306Y557690D01*
X224774Y557980D01*
X224748Y557989D01*
X224723Y558002D01*
X224143Y558178D01*
X223564Y558359D01*
X223536Y558362D01*
X223510Y558370D01*
X222907Y558429D01*
X222303Y558494D01*
X187182Y558793D01*
Y558910D01*
X187053Y560547D01*
X186670Y562144D01*
X186041Y563661D01*
X185183Y565061D01*
X184117Y566310D01*
X182868Y567376D01*
X181468Y568234D01*
X179951Y568863D01*
X178354Y569246D01*
X176717Y569375D01*
X175080Y569246D01*
X173483Y568863D01*
X171966Y568234D01*
X170566Y567376D01*
X169317Y566310D01*
X168251Y565061D01*
X167715Y564187D01*
X167215D01*
X166679Y565061D01*
X165613Y566310D01*
X164364Y567376D01*
X162964Y568234D01*
X161447Y568863D01*
X159850Y569246D01*
X158213Y569375D01*
X156576Y569246D01*
X154979Y568863D01*
X153462Y568234D01*
X152182Y567450D01*
X135887Y583522D01*
X136077Y583985D01*
X149173D01*
X149369Y583665D01*
X150435Y582416D01*
X151684Y581350D01*
X153084Y580492D01*
X154601Y579863D01*
X156198Y579480D01*
X157835Y579351D01*
X159472Y579480D01*
X161069Y579863D01*
X162586Y580492D01*
X163986Y581350D01*
X165235Y582416D01*
X166301Y583665D01*
X166837Y584539D01*
X167337D01*
X167873Y583665D01*
X168939Y582416D01*
X170188Y581350D01*
X171588Y580492D01*
X173105Y579863D01*
X174702Y579480D01*
X176339Y579351D01*
X177976Y579480D01*
X179573Y579863D01*
X181090Y580492D01*
X182490Y581350D01*
X183739Y582416D01*
X184805Y583665D01*
X185663Y585065D01*
X186292Y586582D01*
X186675Y588179D01*
X186804Y589816D01*
Y589984D01*
X213622Y590343D01*
X214209Y590409D01*
X214797Y590467D01*
X214839Y590480D01*
X214882Y590485D01*
X215445Y590664D01*
X216010Y590835D01*
X216049Y590856D01*
X216090Y590869D01*
X216607Y591154D01*
X217128Y591433D01*
X217162Y591461D01*
X217200Y591482D01*
X217652Y591862D01*
X218109Y592237D01*
X218119Y592247D01*
X218142Y592276D01*
X218170Y592299D01*
X218474Y592680D01*
X218923Y593227D01*
X218948Y593273D01*
X218961Y593290D01*
X219092Y593543D01*
X219521Y594346D01*
X219540Y594410D01*
X219544Y594416D01*
X219569Y594506D01*
X219889Y595559D01*
X220013Y596821D01*
X219889Y598083D01*
X219521Y599296D01*
X218923Y600415D01*
X218119Y601395D01*
X217139Y602199D01*
X216020Y602797D01*
X214807Y603165D01*
X213545Y603289D01*
X213436Y603278D01*
X186795Y602921D01*
X186675Y604445D01*
X186292Y606042D01*
X185663Y607559D01*
X184805Y608959D01*
X183739Y610208D01*
X182490Y611274D01*
X181090Y612132D01*
X179573Y612761D01*
X177976Y613144D01*
X176339Y613273D01*
X174702Y613144D01*
X173105Y612761D01*
X171588Y612132D01*
X170188Y611274D01*
X168939Y610208D01*
X167873Y608959D01*
X167337Y608085D01*
X166837D01*
X166301Y608959D01*
X165235Y610208D01*
X163986Y611274D01*
X162586Y612132D01*
X161069Y612761D01*
X159472Y613144D01*
X157835Y613273D01*
X156198Y613144D01*
X154601Y612761D01*
X153084Y612132D01*
X151684Y611274D01*
X151395Y611028D01*
X150920Y611279D01*
X150952Y611573D01*
X151073Y623484D01*
X151529Y623691D01*
X152238Y623085D01*
X153638Y622227D01*
X155155Y621598D01*
X156752Y621215D01*
X158389Y621086D01*
X160026Y621215D01*
X161623Y621598D01*
X163140Y622227D01*
X164540Y623085D01*
X165789Y624151D01*
X166855Y625400D01*
X167391Y626274D01*
X167891D01*
X168427Y625400D01*
X169493Y624151D01*
X170742Y623085D01*
X172142Y622227D01*
X173659Y621598D01*
X175256Y621215D01*
X176893Y621086D01*
X178530Y621215D01*
X180127Y621598D01*
X181644Y622227D01*
X183044Y623085D01*
X184293Y624151D01*
X185359Y625400D01*
X186217Y626800D01*
X186846Y628317D01*
X187229Y629914D01*
X187358Y631551D01*
Y632619D01*
X285251D01*
X286513Y632743D01*
X287726Y633111D01*
X288844Y633709D01*
X289825Y634513D01*
X298659Y643348D01*
X308387D01*
Y611981D01*
D02*
G37*
G36*
X263500Y420445D02*
X263500Y383475D01*
X142402D01*
X131027Y394850D01*
X131037Y394883D01*
X131193Y396465D01*
X131037Y398047D01*
X130576Y399569D01*
X129826Y400971D01*
X128818Y402200D01*
X127589Y403208D01*
X126187Y403958D01*
X124665Y404419D01*
X123083Y404575D01*
X121501Y404419D01*
X119979Y403958D01*
X118577Y403208D01*
X117348Y402200D01*
X116340Y400971D01*
X115590Y399569D01*
X115129Y398047D01*
X114973Y396465D01*
X115129Y394883D01*
X115590Y393361D01*
X115814Y392944D01*
X112616Y389747D01*
X111812Y388767D01*
X111214Y387648D01*
X110846Y386435D01*
X110722Y385173D01*
Y353370D01*
X110846Y352108D01*
X111214Y350895D01*
X111812Y349777D01*
X112616Y348796D01*
X113653Y347760D01*
Y335416D01*
X112862Y334993D01*
X111767Y334095D01*
X110870Y333001D01*
X110202Y331753D01*
X109792Y330399D01*
X109653Y328990D01*
X109792Y327581D01*
X110202Y326227D01*
X110870Y324979D01*
X111767Y323885D01*
X112862Y322987D01*
X113653Y322564D01*
Y320456D01*
X112862Y320033D01*
X111767Y319135D01*
X110870Y318041D01*
X110202Y316793D01*
X109792Y315439D01*
X109653Y314030D01*
X109792Y312621D01*
X110202Y311267D01*
X110870Y310019D01*
X111767Y308925D01*
X112862Y308027D01*
X114110Y307360D01*
X115464Y306949D01*
X116873Y306810D01*
X123369D01*
X124778Y306949D01*
X126132Y307360D01*
X127381Y308027D01*
X128475Y308925D01*
X129373Y310019D01*
X130040Y311267D01*
X130450Y312621D01*
X130589Y314030D01*
X130450Y315439D01*
X130040Y316793D01*
X129373Y318041D01*
X128475Y319135D01*
X127381Y320033D01*
X126589Y320456D01*
Y322564D01*
X127381Y322987D01*
X128475Y323885D01*
X128553Y323980D01*
X129031Y323835D01*
X129068Y323464D01*
X129417Y322313D01*
X129983Y321253D01*
X130746Y320324D01*
X131675Y319561D01*
X132735Y318995D01*
X133886Y318646D01*
X135082Y318528D01*
X136278Y318646D01*
X137429Y318995D01*
X138489Y319561D01*
X139418Y320324D01*
X140181Y321253D01*
X140747Y322313D01*
X141096Y323464D01*
X141214Y324660D01*
X141115Y325663D01*
X141507Y326067D01*
X142236Y325846D01*
X143645Y325707D01*
X150141D01*
X151550Y325846D01*
X152904Y326257D01*
X154153Y326924D01*
X155247Y327822D01*
X156144Y328916D01*
X156812Y330164D01*
X157223Y331518D01*
X157361Y332927D01*
X157223Y334336D01*
X156812Y335690D01*
X156144Y336938D01*
X155247Y338032D01*
X154153Y338930D01*
X152904Y339597D01*
X151550Y340008D01*
X150141Y340147D01*
X143645D01*
X142236Y340008D01*
X140882Y339597D01*
X139634Y338930D01*
X138539Y338032D01*
X137642Y336938D01*
X136974Y335690D01*
X136563Y334336D01*
X136425Y332927D01*
X136563Y331518D01*
X136720Y331001D01*
X136367Y330647D01*
X136278Y330674D01*
X135082Y330792D01*
X133886Y330674D01*
X132735Y330325D01*
X131675Y329759D01*
X131065Y329258D01*
X130542Y329475D01*
X130450Y330399D01*
X130040Y331753D01*
X129373Y333001D01*
X128475Y334095D01*
X127381Y334993D01*
X126589Y335416D01*
Y343346D01*
X158210D01*
X158736Y343186D01*
X159998Y343062D01*
X167034D01*
Y329719D01*
Y319058D01*
X166884Y318563D01*
X166751Y317213D01*
Y311307D01*
X166884Y309957D01*
X167278Y308658D01*
X167918Y307461D01*
X168779Y306412D01*
X169828Y305551D01*
X171025Y304911D01*
X172323Y304517D01*
X173674Y304384D01*
X175025Y304517D01*
X176323Y304911D01*
X177520Y305551D01*
X178569Y306412D01*
X179430Y307461D01*
X180070Y308658D01*
X180097Y308746D01*
X180589Y308835D01*
X180855Y308488D01*
X181681Y307855D01*
X182642Y307456D01*
X183174Y307386D01*
Y314260D01*
Y321134D01*
X182642Y321064D01*
X181681Y320666D01*
X180855Y320032D01*
X180589Y319685D01*
X180097Y319774D01*
X180070Y319862D01*
X179970Y320049D01*
Y327040D01*
X186597Y333667D01*
X200487D01*
X200724Y333167D01*
X200231Y332566D01*
X199633Y331448D01*
X199265Y330235D01*
X199141Y328973D01*
Y319087D01*
X198861Y318164D01*
X198728Y316814D01*
Y310908D01*
X198861Y309558D01*
X199255Y308259D01*
X199895Y307062D01*
X200756Y306013D01*
X201805Y305152D01*
X203002Y304512D01*
X204300Y304118D01*
X205651Y303985D01*
X207002Y304118D01*
X208300Y304512D01*
X209497Y305152D01*
X210546Y306013D01*
X211407Y307062D01*
X212047Y308259D01*
X212074Y308347D01*
X212566Y308436D01*
X212832Y308089D01*
X213658Y307455D01*
X214619Y307057D01*
X215151Y306987D01*
Y313861D01*
Y320735D01*
X214619Y320665D01*
X213658Y320267D01*
X212832Y319633D01*
X212558Y319276D01*
X212367Y319311D01*
X212077Y319471D01*
Y326294D01*
X219450Y333667D01*
X221543D01*
X228916Y326294D01*
Y316124D01*
X229040Y314862D01*
X229408Y313649D01*
X230006Y312530D01*
X230280Y312197D01*
Y311352D01*
X230413Y310002D01*
X230807Y308703D01*
X231447Y307506D01*
X232308Y306457D01*
X233357Y305596D01*
X234554Y304956D01*
X235852Y304562D01*
X237203Y304429D01*
X238554Y304562D01*
X239852Y304956D01*
X241049Y305596D01*
X242098Y306457D01*
X242959Y307506D01*
X243599Y308703D01*
X243626Y308791D01*
X244118Y308880D01*
X244384Y308533D01*
X245210Y307899D01*
X246171Y307501D01*
X246703Y307431D01*
Y314305D01*
Y321179D01*
X246171Y321109D01*
X245210Y320710D01*
X244384Y320077D01*
X244118Y319730D01*
X243626Y319819D01*
X243599Y319907D01*
X242959Y321104D01*
X242098Y322153D01*
X241852Y322355D01*
Y328973D01*
X241728Y330235D01*
X241360Y331448D01*
X240762Y332566D01*
X240269Y333167D01*
X240506Y333667D01*
X254110D01*
X262646Y325132D01*
Y314389D01*
X262770Y313127D01*
X263138Y311914D01*
X263162Y311869D01*
Y310465D01*
X263295Y309115D01*
X263689Y307816D01*
X264329Y306619D01*
X265190Y305570D01*
X266239Y304709D01*
X267436Y304069D01*
X268734Y303675D01*
X270085Y303542D01*
X271436Y303675D01*
X272734Y304069D01*
X273931Y304709D01*
X274980Y305570D01*
X275841Y306619D01*
X276481Y307816D01*
X276508Y307904D01*
X277000Y307993D01*
X277266Y307646D01*
X278092Y307013D01*
X279053Y306614D01*
X279585Y306544D01*
Y313418D01*
Y320292D01*
X279053Y320222D01*
X278092Y319824D01*
X277266Y319190D01*
X277000Y318843D01*
X276508Y318932D01*
X276481Y319020D01*
X275841Y320217D01*
X275582Y320533D01*
Y327811D01*
X275582Y327811D01*
X275582Y327811D01*
X275520Y328445D01*
X275458Y329073D01*
X275458Y329073D01*
X275458Y329073D01*
X275288Y329632D01*
X275090Y330286D01*
X275090Y330286D01*
X275090Y330287D01*
X274819Y330792D01*
X274492Y331404D01*
X274492Y331405D01*
X274492Y331405D01*
X274089Y331895D01*
X273688Y332385D01*
X273688Y332385D01*
X273688Y332385D01*
X272867Y333205D01*
X273059Y333667D01*
X291328D01*
X294747Y330248D01*
Y313838D01*
X294754Y313765D01*
X294748Y313691D01*
X294816Y313134D01*
X294871Y312576D01*
X294893Y312506D01*
X294901Y312433D01*
X295076Y311899D01*
X295239Y311363D01*
X295274Y311298D01*
X295297Y311228D01*
X295572Y310739D01*
X295638Y310616D01*
X295684Y310466D01*
X296324Y309269D01*
X297185Y308220D01*
X298234Y307359D01*
X299431Y306719D01*
X300729Y306325D01*
X302080Y306192D01*
X303431Y306325D01*
X304729Y306719D01*
X305926Y307359D01*
X306975Y308220D01*
X307836Y309269D01*
X308476Y310466D01*
X308503Y310554D01*
X308995Y310643D01*
X309261Y310296D01*
X310087Y309663D01*
X311048Y309264D01*
X311580Y309194D01*
Y316068D01*
Y322942D01*
X311048Y322872D01*
X310087Y322474D01*
X309261Y321840D01*
X308995Y321493D01*
X308503Y321582D01*
X308476Y321670D01*
X307836Y322867D01*
X307683Y323054D01*
Y332927D01*
X307559Y334189D01*
X307191Y335402D01*
X306593Y336521D01*
X305789Y337501D01*
X298581Y344709D01*
X297601Y345513D01*
X296482Y346111D01*
X295269Y346479D01*
X294007Y346603D01*
X222388D01*
Y356932D01*
X222264Y358194D01*
X222257Y358217D01*
Y360101D01*
X219089Y363269D01*
X217204D01*
X217182Y363276D01*
X215920Y363400D01*
X214658Y363276D01*
X214635Y363269D01*
X212752D01*
X209583Y360101D01*
Y358217D01*
X209576Y358194D01*
X209452Y356932D01*
Y346603D01*
X183918D01*
X182656Y346479D01*
X181443Y346111D01*
X180470Y345591D01*
X179970Y345810D01*
Y348468D01*
Y352978D01*
X182214Y355222D01*
Y357105D01*
X182221Y357128D01*
X182345Y358390D01*
X182221Y359652D01*
X182214Y359675D01*
Y361559D01*
X179045Y364727D01*
X177162D01*
X177139Y364734D01*
X175877Y364858D01*
X174615Y364734D01*
X174592Y364727D01*
X172708D01*
X169540Y361559D01*
Y361200D01*
X168928Y360589D01*
X168124Y359609D01*
X167526Y358490D01*
X167158Y357277D01*
X167034Y356015D01*
Y355998D01*
X161502D01*
X160976Y356158D01*
X159714Y356282D01*
X144762D01*
X144662Y356782D01*
X145271Y357034D01*
X146671Y357892D01*
X147920Y358959D01*
X148987Y360208D01*
X149845Y361608D01*
X150473Y363125D01*
X150856Y364722D01*
X150985Y366359D01*
X150856Y367996D01*
X150473Y369593D01*
X149845Y371110D01*
X148987Y372510D01*
X147920Y373759D01*
X147573Y374056D01*
X147746Y374525D01*
X263500D01*
Y364580D01*
X292584D01*
X323439Y340227D01*
X322775Y304749D01*
X321218Y295971D01*
X103971D01*
Y420256D01*
X263146Y420798D01*
X263500Y420445D01*
D02*
G37*
G36*
X308387Y656284D02*
X295980D01*
X294718Y656160D01*
X293505Y655792D01*
X292387Y655194D01*
X291406Y654390D01*
X282572Y645555D01*
X187278D01*
X187229Y646180D01*
X186846Y647777D01*
X186217Y649294D01*
X185359Y650694D01*
X184293Y651943D01*
X183044Y653009D01*
X181644Y653867D01*
X180127Y654496D01*
X178530Y654879D01*
X176893Y655008D01*
X175256Y654879D01*
X173659Y654496D01*
X172142Y653867D01*
X170742Y653009D01*
X169493Y651943D01*
X168427Y650694D01*
X167891Y649820D01*
X167391D01*
X166855Y650694D01*
X165789Y651943D01*
X164540Y653009D01*
X163140Y653867D01*
X161623Y654496D01*
X160026Y654879D01*
X158389Y655008D01*
X156752Y654879D01*
X155155Y654496D01*
X153638Y653867D01*
X152238Y653009D01*
X150989Y651943D01*
X149923Y650694D01*
X149065Y649294D01*
X148436Y647777D01*
X148053Y646180D01*
X147924Y644543D01*
Y644003D01*
X147788Y643962D01*
X147788Y643962D01*
X147788Y643962D01*
X147227Y643662D01*
X146670Y643364D01*
X146670Y643364D01*
X146669Y643364D01*
X146185Y642966D01*
X145690Y642560D01*
X140123Y636994D01*
X139741Y636529D01*
X139355Y636068D01*
X139339Y636039D01*
X139318Y636014D01*
X139035Y635483D01*
X138746Y634956D01*
X138736Y634925D01*
X138720Y634896D01*
X138546Y634320D01*
X138365Y633746D01*
X138362Y633714D01*
X138352Y633682D01*
X138293Y633084D01*
X138228Y632486D01*
X138043Y614346D01*
X130999Y607301D01*
X129403D01*
X129157Y607801D01*
X129535Y608294D01*
X129903Y609183D01*
X129963Y609638D01*
X126340D01*
X122717D01*
X122777Y609183D01*
X123145Y608294D01*
X123732Y607530D01*
X124125Y607228D01*
X124076Y606635D01*
X123838Y606507D01*
X123284Y606211D01*
X123281Y606209D01*
X123278Y606208D01*
X123028Y606002D01*
X122659Y605804D01*
X121655Y604980D01*
X120831Y603976D01*
X120218Y602831D01*
X119841Y601588D01*
X119714Y600295D01*
X119841Y599002D01*
X120218Y597759D01*
X120831Y596614D01*
X121569Y595715D01*
X121619Y595374D01*
X121569Y595033D01*
X120831Y594134D01*
X120218Y592989D01*
X119841Y591746D01*
X119714Y590453D01*
X119841Y589160D01*
X120218Y587917D01*
X120831Y586772D01*
X121569Y585872D01*
X121619Y585532D01*
X121569Y585191D01*
X120831Y584291D01*
X120218Y583146D01*
X119841Y581903D01*
X119714Y580610D01*
X119841Y579317D01*
X120218Y578074D01*
X120831Y576929D01*
X121655Y575925D01*
X122659Y575101D01*
X123804Y574488D01*
X125047Y574111D01*
X126340Y573984D01*
X127064Y574055D01*
X147748Y553652D01*
Y545918D01*
X147877Y544281D01*
X148260Y542684D01*
X148889Y541167D01*
X149747Y539767D01*
X150813Y538518D01*
X152062Y537452D01*
X153462Y536594D01*
X154979Y535965D01*
X156576Y535582D01*
X158213Y535453D01*
X159850Y535582D01*
X161447Y535965D01*
X162964Y536594D01*
X164364Y537452D01*
X165613Y538518D01*
X166679Y539767D01*
X167215Y540641D01*
X167715D01*
X168251Y539767D01*
X169317Y538518D01*
X170566Y537452D01*
X171966Y536594D01*
X173483Y535965D01*
X175080Y535582D01*
X176717Y535453D01*
X178354Y535582D01*
X179951Y535965D01*
X181468Y536594D01*
X182868Y537452D01*
X184117Y538518D01*
X185183Y539767D01*
X186041Y541167D01*
X186670Y542684D01*
X187053Y544281D01*
X187177Y545857D01*
X209865Y545663D01*
X209988Y545162D01*
X209238Y544761D01*
X207877Y543644D01*
X207877Y543644D01*
X147139Y482906D01*
X147039Y482824D01*
X145922Y481463D01*
X145092Y479911D01*
X144581Y478226D01*
X144409Y476474D01*
X144581Y474722D01*
X145092Y473037D01*
X145922Y471485D01*
X147039Y470124D01*
X147048Y470115D01*
X147048Y470115D01*
X148409Y468998D01*
X149961Y468168D01*
X151646Y467657D01*
X153398Y467485D01*
X155150Y467657D01*
X156835Y468168D01*
X158387Y468998D01*
X159748Y470115D01*
X168284Y478652D01*
X168708Y478368D01*
X168475Y477805D01*
X168365Y476965D01*
X172977D01*
Y481577D01*
X172137Y481467D01*
X171574Y481234D01*
X171291Y481658D01*
X217947Y528314D01*
X224231D01*
Y516060D01*
X224231Y516058D01*
X224231Y516057D01*
X224318Y515175D01*
X224403Y514308D01*
X224404Y514306D01*
X224404Y514305D01*
X224656Y513475D01*
X224914Y512623D01*
X224915Y512622D01*
X224916Y512620D01*
X225333Y511840D01*
X225744Y511071D01*
X225745Y511070D01*
X225746Y511068D01*
X226303Y510390D01*
X226861Y509710D01*
X226862Y509709D01*
X226863Y509708D01*
X227980Y508592D01*
X228314Y508184D01*
X229702Y507046D01*
X231284Y506200D01*
X233002Y505679D01*
X234788Y505503D01*
Y505504D01*
X247980D01*
Y479983D01*
X248153Y478231D01*
X248384Y477470D01*
Y462000D01*
X103971D01*
Y657439D01*
X308387D01*
Y656284D01*
D02*
G37*
%LPC*%
G36*
X258980Y541294D02*
X257480D01*
Y537794D01*
X260980D01*
Y539294D01*
X258980Y541294D01*
D02*
G37*
G36*
X266480D02*
X264980D01*
X262980Y539294D01*
Y537794D01*
X266480D01*
Y541294D01*
D02*
G37*
G36*
X260980Y546794D02*
X257480D01*
Y543294D01*
X258980D01*
X260980Y545294D01*
Y546794D01*
D02*
G37*
G36*
Y536794D02*
X257480D01*
Y533294D01*
X258980D01*
X260980Y535294D01*
Y536794D01*
D02*
G37*
G36*
X266480D02*
X262980D01*
Y535294D01*
X264980Y533294D01*
X266480D01*
Y536794D01*
D02*
G37*
G36*
Y546794D02*
X262980D01*
Y545294D01*
X264980Y543294D01*
X266480D01*
Y546794D01*
D02*
G37*
G36*
X258980Y551294D02*
X257480D01*
Y547794D01*
X260980D01*
Y549294D01*
X258980Y551294D01*
D02*
G37*
G36*
X266480D02*
X264980D01*
X262980Y549294D01*
Y547794D01*
X266480D01*
Y551294D01*
D02*
G37*
G36*
X235420Y356432D02*
X232520D01*
Y355232D01*
X234220Y353532D01*
X235420D01*
Y356432D01*
D02*
G37*
G36*
X239320D02*
X236420D01*
Y353532D01*
X237620D01*
X239320Y355232D01*
Y356432D01*
D02*
G37*
G36*
X312580Y322942D02*
Y316568D01*
X316067D01*
Y319021D01*
X315931Y320053D01*
X315533Y321014D01*
X314899Y321840D01*
X314073Y322474D01*
X313112Y322872D01*
X312580Y322942D01*
D02*
G37*
G36*
X184174Y321134D02*
Y314760D01*
X187661D01*
Y317213D01*
X187525Y318245D01*
X187127Y319206D01*
X186493Y320032D01*
X185667Y320666D01*
X184706Y321064D01*
X184174Y321134D01*
D02*
G37*
G36*
X247703Y321179D02*
Y314805D01*
X251190D01*
Y317258D01*
X251054Y318290D01*
X250656Y319251D01*
X250022Y320077D01*
X249196Y320710D01*
X248235Y321109D01*
X247703Y321179D01*
D02*
G37*
G36*
X195377Y357890D02*
X192477D01*
Y356690D01*
X194177Y354990D01*
X195377D01*
Y357890D01*
D02*
G37*
G36*
Y361790D02*
X194177D01*
X192477Y360090D01*
Y358890D01*
X195377D01*
Y361790D01*
D02*
G37*
G36*
X197577D02*
X196377D01*
Y358890D01*
X199277D01*
Y360090D01*
X197577Y361790D01*
D02*
G37*
G36*
X237620Y360332D02*
X236420D01*
Y357432D01*
X239320D01*
Y358632D01*
X237620Y360332D01*
D02*
G37*
G36*
X199277Y357890D02*
X196377D01*
Y354990D01*
X197577D01*
X199277Y356690D01*
Y357890D01*
D02*
G37*
G36*
X235420Y360332D02*
X234220D01*
X232520Y358632D01*
Y357432D01*
X235420D01*
Y360332D01*
D02*
G37*
G36*
X187661Y313760D02*
X184174D01*
Y307386D01*
X184706Y307456D01*
X185667Y307855D01*
X186493Y308488D01*
X187127Y309314D01*
X187525Y310275D01*
X187661Y311307D01*
Y313760D01*
D02*
G37*
G36*
X251190Y313805D02*
X247703D01*
Y307431D01*
X248235Y307501D01*
X249196Y307899D01*
X250022Y308533D01*
X250656Y309359D01*
X251054Y310320D01*
X251190Y311352D01*
Y313805D01*
D02*
G37*
G36*
X316067Y315568D02*
X312580D01*
Y309194D01*
X313112Y309264D01*
X314073Y309663D01*
X314899Y310296D01*
X315533Y311122D01*
X315931Y312083D01*
X316067Y313115D01*
Y315568D01*
D02*
G37*
G36*
X135082Y311107D02*
X133886Y310989D01*
X132735Y310640D01*
X131675Y310074D01*
X130746Y309311D01*
X129983Y308382D01*
X129417Y307322D01*
X129068Y306171D01*
X128950Y304975D01*
X129068Y303779D01*
X129417Y302628D01*
X129983Y301568D01*
X130746Y300639D01*
X131675Y299876D01*
X132735Y299310D01*
X133886Y298961D01*
X135082Y298843D01*
X136278Y298961D01*
X137429Y299310D01*
X138489Y299876D01*
X139418Y300639D01*
X140181Y301568D01*
X140747Y302628D01*
X141096Y303779D01*
X141214Y304975D01*
X141096Y306171D01*
X140747Y307322D01*
X140181Y308382D01*
X139418Y309311D01*
X138489Y310074D01*
X137429Y310640D01*
X136278Y310989D01*
X135082Y311107D01*
D02*
G37*
G36*
X284072Y312918D02*
X280585D01*
Y306544D01*
X281117Y306614D01*
X282078Y307013D01*
X282904Y307646D01*
X283538Y308472D01*
X283936Y309433D01*
X284072Y310465D01*
Y312918D01*
D02*
G37*
G36*
X219638Y313361D02*
X216151D01*
Y306987D01*
X216683Y307057D01*
X217644Y307455D01*
X218470Y308089D01*
X219104Y308915D01*
X219502Y309876D01*
X219638Y310908D01*
Y313361D01*
D02*
G37*
G36*
X216151Y320735D02*
Y314361D01*
X219638D01*
Y316814D01*
X219502Y317846D01*
X219104Y318807D01*
X218470Y319633D01*
X217644Y320267D01*
X216683Y320665D01*
X216151Y320735D01*
D02*
G37*
G36*
X146393Y318315D02*
X143645D01*
X142536Y318169D01*
X141502Y317741D01*
X140615Y317060D01*
X139934Y316173D01*
X139506Y315139D01*
X139426Y314530D01*
X146393D01*
Y318315D01*
D02*
G37*
G36*
X150141D02*
X147393D01*
Y314530D01*
X154360D01*
X154280Y315139D01*
X153852Y316173D01*
X153171Y317060D01*
X152284Y317741D01*
X151250Y318169D01*
X150141Y318315D01*
D02*
G37*
G36*
X146393Y313530D02*
X139426D01*
X139506Y312921D01*
X139934Y311888D01*
X140615Y311000D01*
X141502Y310319D01*
X142536Y309891D01*
X143645Y309745D01*
X146393D01*
Y313530D01*
D02*
G37*
G36*
X154360D02*
X147393D01*
Y309745D01*
X150141D01*
X151250Y309891D01*
X152284Y310319D01*
X153171Y311000D01*
X153852Y311888D01*
X154280Y312921D01*
X154360Y313530D01*
D02*
G37*
G36*
X280585Y320292D02*
Y313918D01*
X284072D01*
Y316371D01*
X283936Y317403D01*
X283538Y318364D01*
X282904Y319190D01*
X282078Y319824D01*
X281117Y320222D01*
X280585Y320292D01*
D02*
G37*
G36*
X202898Y401578D02*
X202058Y401467D01*
X200809Y400949D01*
X199736Y400127D01*
X198914Y399054D01*
X198396Y397805D01*
X198285Y396965D01*
X202898D01*
Y401578D01*
D02*
G37*
G36*
X203898D02*
Y396965D01*
X208510D01*
X208400Y397805D01*
X207882Y399054D01*
X207060Y400127D01*
X205987Y400949D01*
X204738Y401467D01*
X203898Y401578D01*
D02*
G37*
G36*
X163241Y404575D02*
X161659Y404419D01*
X160137Y403958D01*
X158735Y403208D01*
X157506Y402200D01*
X156498Y400971D01*
X155748Y399569D01*
X155287Y398047D01*
X155131Y396465D01*
X155287Y394883D01*
X155748Y393361D01*
X156498Y391959D01*
X157506Y390730D01*
X158735Y389722D01*
X160137Y388972D01*
X161659Y388511D01*
X163241Y388355D01*
X164823Y388511D01*
X166345Y388972D01*
X167747Y389722D01*
X168976Y390730D01*
X169984Y391959D01*
X170734Y393361D01*
X171195Y394883D01*
X171351Y396465D01*
X171195Y398047D01*
X170734Y399569D01*
X169984Y400971D01*
X168976Y402200D01*
X167747Y403208D01*
X166345Y403958D01*
X164823Y404419D01*
X163241Y404575D01*
D02*
G37*
G36*
X202898Y395965D02*
X198285D01*
X198396Y395125D01*
X198914Y393876D01*
X199736Y392803D01*
X200809Y391981D01*
X202058Y391463D01*
X202898Y391353D01*
Y395965D01*
D02*
G37*
G36*
X208510D02*
X203898D01*
Y391353D01*
X204738Y391463D01*
X205987Y391981D01*
X207060Y392803D01*
X207882Y393876D01*
X208400Y395125D01*
X208510Y395965D01*
D02*
G37*
G36*
X239343Y482701D02*
X238143D01*
Y479801D01*
X241043D01*
Y481001D01*
X239343Y482701D01*
D02*
G37*
G36*
X125840Y613761D02*
X125385Y613701D01*
X124496Y613333D01*
X123732Y612746D01*
X123145Y611982D01*
X122777Y611093D01*
X122717Y610638D01*
X125840D01*
Y613761D01*
D02*
G37*
G36*
X126840D02*
Y610638D01*
X129963D01*
X129903Y611093D01*
X129535Y611982D01*
X128948Y612746D01*
X128184Y613333D01*
X127295Y613701D01*
X126840Y613761D01*
D02*
G37*
G36*
X126381Y656918D02*
X124744Y656789D01*
X123147Y656406D01*
X121630Y655778D01*
X120230Y654920D01*
X118981Y653853D01*
X117914Y652604D01*
X117056Y651204D01*
X116428Y649687D01*
X116045Y648090D01*
X115916Y646453D01*
X116045Y644816D01*
X116428Y643219D01*
X117056Y641702D01*
X117914Y640302D01*
X118981Y639053D01*
X120230Y637986D01*
X121630Y637128D01*
X123147Y636500D01*
X124744Y636117D01*
X126381Y635988D01*
X128018Y636117D01*
X129615Y636500D01*
X131132Y637128D01*
X132532Y637986D01*
X133781Y639053D01*
X134848Y640302D01*
X135706Y641702D01*
X136334Y643219D01*
X136717Y644816D01*
X136846Y646453D01*
X136717Y648090D01*
X136334Y649687D01*
X135706Y651204D01*
X134848Y652604D01*
X133781Y653853D01*
X132532Y654920D01*
X131132Y655778D01*
X129615Y656406D01*
X128018Y656789D01*
X126381Y656918D01*
D02*
G37*
G36*
X203398Y484575D02*
X201816Y484419D01*
X200294Y483958D01*
X198892Y483208D01*
X197663Y482200D01*
X196655Y480971D01*
X195905Y479569D01*
X195444Y478047D01*
X195288Y476465D01*
X195444Y474883D01*
X195905Y473361D01*
X196655Y471959D01*
X197663Y470730D01*
X198892Y469722D01*
X200294Y468972D01*
X201816Y468511D01*
X203398Y468355D01*
X204980Y468511D01*
X206502Y468972D01*
X207904Y469722D01*
X209133Y470730D01*
X210141Y471959D01*
X210891Y473361D01*
X211352Y474883D01*
X211508Y476465D01*
X211352Y478047D01*
X210891Y479569D01*
X210141Y480971D01*
X209133Y482200D01*
X207904Y483208D01*
X206502Y483958D01*
X204980Y484419D01*
X203398Y484575D01*
D02*
G37*
G36*
X241043Y478801D02*
X238143D01*
Y475901D01*
X239343D01*
X241043Y477601D01*
Y478801D01*
D02*
G37*
G36*
X173977Y481577D02*
Y476965D01*
X178589D01*
X178479Y477805D01*
X177962Y479054D01*
X177139Y480127D01*
X176066Y480949D01*
X174817Y481467D01*
X173977Y481577D01*
D02*
G37*
G36*
X237143Y482701D02*
X235943D01*
X234243Y481001D01*
Y479801D01*
X237143D01*
Y482701D01*
D02*
G37*
G36*
X172977Y475965D02*
X168365D01*
X168475Y475125D01*
X168992Y473876D01*
X169815Y472803D01*
X170888Y471980D01*
X172137Y471463D01*
X172977Y471352D01*
Y475965D01*
D02*
G37*
G36*
X178589D02*
X173977D01*
Y471352D01*
X174817Y471463D01*
X176066Y471980D01*
X177139Y472803D01*
X177962Y473876D01*
X178479Y475125D01*
X178589Y475965D01*
D02*
G37*
G36*
X237143Y478801D02*
X234243D01*
Y477601D01*
X235943Y475901D01*
X237143D01*
Y478801D01*
D02*
G37*
%LPD*%
D10*
X234614Y514658D02*
G03*
X234788Y514484I174J0D01*
G01*
X233211Y516060D02*
X234614Y514658D01*
X234788Y514484D01*
X469901D02*
X484064Y528647D01*
Y588739D02*
X485133Y589807D01*
X484064Y528647D02*
Y588739D01*
X153389Y476474D02*
X153398Y476465D01*
X236980Y537294D02*
Y547294D01*
X257364Y446655D02*
Y479022D01*
X257643Y479301D01*
X237643Y446934D02*
Y479301D01*
X237364Y446655D02*
X237643Y446934D01*
X256961Y479983D02*
Y514484D01*
X234788D02*
X256961D01*
X469901D01*
X153398Y476465D02*
X214227Y537294D01*
X226980D01*
X233211Y516060D02*
Y537294D01*
D11*
X391629Y620319D02*
D03*
X340448D02*
D03*
X442810D02*
D03*
Y559295D02*
D03*
X340448D02*
D03*
D12*
X290251Y588978D02*
D03*
X485133Y589807D02*
D03*
D13*
X293500Y401500D02*
Y419500D01*
Y401500D02*
X333500D01*
Y419500D01*
X293500D02*
X333500D01*
X519500Y392845D02*
X521500Y394845D01*
X550000Y508500D02*
Y599500D01*
X504500Y508500D02*
X550000D01*
X504500D02*
Y599500D01*
X550000D01*
X511000Y495500D02*
X517500Y489000D01*
X407500Y495500D02*
X511000D01*
X386500Y474500D02*
X407500Y495500D01*
X386500Y386000D02*
Y474500D01*
Y386000D02*
X394000Y378500D01*
X469053Y439553D02*
X495000Y465500D01*
X469053Y401553D02*
Y439553D01*
X457500Y390000D02*
X469053Y401553D01*
X457500Y375057D02*
Y390000D01*
Y375057D02*
X460146Y372411D01*
X465000Y402000D02*
Y405500D01*
X424500Y361500D02*
X465000Y402000D01*
X390000Y361500D02*
X424500D01*
X521500Y394845D02*
Y402716D01*
X520947Y403269D02*
X521500Y402716D01*
X520947Y403269D02*
Y412447D01*
X525000Y416500D01*
Y465500D01*
X517500Y473000D02*
X525000Y465500D01*
X517500Y473000D02*
Y489000D01*
X463500D02*
X477500D01*
X505000Y405500D02*
Y431500D01*
X500500Y436000D02*
X505000Y431500D01*
X500500Y436000D02*
Y472500D01*
X499000Y474000D02*
X500500Y472500D01*
X468500Y474000D02*
X499000D01*
X453500Y489000D02*
X468500Y474000D01*
X408000Y653500D02*
Y660500D01*
X411500Y664000D01*
X417000D01*
X440000Y661000D02*
X448000Y653000D01*
X456500D01*
X466500D02*
X475000Y661500D01*
X483000D01*
X482500Y641000D02*
X483000Y641500D01*
X440000Y641000D02*
X482500D01*
X417000Y664000D02*
X440000Y641000D01*
X359500Y331000D02*
X390000Y361500D01*
X359500Y316000D02*
Y331000D01*
X468632Y341632D02*
Y344704D01*
X434000Y307000D02*
X468632Y341632D01*
X423000Y307000D02*
X434000D01*
X280000Y391500D02*
X299500D01*
X267500Y379000D02*
X280000Y391500D01*
X140548Y379000D02*
X267500D01*
X123083Y396465D02*
X140548Y379000D01*
X256961Y479983D02*
X257643Y479301D01*
X226980Y537294D02*
X233211D01*
X236980D01*
X174500Y550196D02*
X176718Y552414D01*
D14*
X159998Y349530D02*
X172441D01*
X159714Y349814D02*
X159998Y349530D01*
X120121Y349814D02*
X159714D01*
X391629Y620319D02*
Y635140D01*
X295980Y649816D02*
X376952D01*
X285251Y639087D02*
X295980Y649816D01*
X376952D02*
X391629Y635140D01*
X157835Y596312D02*
X157836Y596312D01*
X151478Y590453D02*
X157835Y596312D01*
X158213Y552415D02*
X158214Y552414D01*
X129629Y580610D02*
X158213Y552415D01*
X172441Y349530D02*
X173502Y348468D01*
X117190Y353370D02*
X120121Y350439D01*
Y349814D02*
Y350439D01*
Y314029D02*
Y349814D01*
X173502Y329719D02*
Y348468D01*
Y356015D01*
X183918Y340135D02*
X215920D01*
X173502Y329719D02*
X183918Y340135D01*
X173502Y314260D02*
X173674D01*
X256789Y340135D02*
X294007D01*
X301215Y332927D01*
Y313838D02*
X302080Y316068D01*
X224222Y340135D02*
X256789D01*
X269114Y327811D01*
Y314389D02*
Y327811D01*
Y314389D02*
X270085Y313418D01*
X215920Y340135D02*
X224222D01*
X235384Y328973D01*
Y316124D02*
Y328973D01*
Y316124D02*
X237203Y314305D01*
X215920Y340135D02*
Y356932D01*
Y339284D02*
Y340135D01*
X205609Y328973D02*
X215920Y339284D01*
X205609Y313904D02*
Y328973D01*
Y313904D02*
X205651Y313861D01*
X173502Y356015D02*
X175877Y358390D01*
X177933Y639087D02*
X285251D01*
X176893Y638047D02*
X177933Y639087D01*
X442810Y559295D02*
X443213Y558892D01*
Y533046D02*
Y558892D01*
X213535Y596811D02*
X213545Y596821D01*
X176340Y596312D02*
X213535Y596811D01*
X226980Y547294D02*
X236980D01*
X222248Y552026D02*
X226980Y547294D01*
X176718Y552414D02*
X222248Y552026D01*
X126340Y590453D02*
X151478D01*
X158328Y637986D02*
X158389Y638047D01*
X150263Y637986D02*
X158328D01*
X144696Y632420D02*
X150263Y637986D01*
X144484Y611639D02*
X144696Y632420D01*
X133678Y600833D02*
X144484Y611639D01*
X126877Y600833D02*
X133678D01*
X126340Y600295D02*
X126877Y600833D01*
X126340Y580610D02*
X129629D01*
X301215Y313838D02*
Y332927D01*
X173502Y314260D02*
Y329719D01*
X117190Y353370D02*
Y385173D01*
X123083Y391066D01*
D15*
X505471Y392845D02*
X519500D01*
X469535Y382149D02*
X488498D01*
X505303Y382678D02*
X522681D01*
X522849Y382845D01*
X504774Y382149D02*
X505303Y382678D01*
X488498Y382149D02*
X504774D01*
X469527Y382140D02*
X469535Y382149D01*
X469256Y372411D02*
X469527Y372140D01*
X460146Y372411D02*
X469256D01*
X476506Y344704D02*
Y357360D01*
X469151Y364715D02*
X476506Y357360D01*
X469151Y364715D02*
Y371765D01*
X469527Y372140D01*
X505303Y392678D02*
X505471Y392845D01*
X489027Y392678D02*
X505303D01*
X488498Y392149D02*
X489027Y392678D01*
X469535Y392149D02*
X488498D01*
X469527Y392140D02*
X469535Y392149D01*
X488498Y362513D02*
Y372149D01*
Y362513D02*
X496164Y354846D01*
Y333242D02*
Y354846D01*
X492563Y329640D02*
X496164Y333242D01*
X484213Y329640D02*
X492563D01*
X477338Y322766D02*
X484213Y329640D01*
X477338Y310918D02*
Y322766D01*
X477104Y310685D02*
X477338Y310918D01*
D16*
X313500Y408000D02*
D03*
X323500D02*
D03*
X303500D02*
D03*
D17*
X369500Y316000D02*
D03*
X359500D02*
D03*
X344500Y315500D02*
D03*
X334500D02*
D03*
X456500Y653000D02*
D03*
X466500D02*
D03*
X408000Y653500D02*
D03*
X418000D02*
D03*
X183674Y314260D02*
D03*
X173674D02*
D03*
X215651Y313861D02*
D03*
X205651D02*
D03*
X247203Y314305D02*
D03*
X237203D02*
D03*
X280085Y313418D02*
D03*
X270085D02*
D03*
X312080Y316068D02*
D03*
X302080D02*
D03*
D18*
X351000Y372000D02*
D03*
Y392000D02*
D03*
X334000Y371500D02*
D03*
Y391500D02*
D03*
X299500Y371500D02*
D03*
Y391500D02*
D03*
X483000Y641500D02*
D03*
Y661500D02*
D03*
X440000Y641000D02*
D03*
Y661000D02*
D03*
X394000Y378500D02*
D03*
Y338500D02*
D03*
X422500Y378000D02*
D03*
Y338000D02*
D03*
X394500Y307000D02*
D03*
Y317000D02*
D03*
X423000Y307000D02*
D03*
Y317000D02*
D03*
D19*
X520000Y524500D02*
D03*
Y583500D02*
D03*
D20*
X525000Y405500D02*
D03*
X515000D02*
D03*
X505000D02*
D03*
X495000D02*
D03*
X485000D02*
D03*
X475000D02*
D03*
X465000D02*
D03*
X455000D02*
D03*
X445000D02*
D03*
X435000D02*
D03*
X425000D02*
D03*
X415000D02*
D03*
X405000D02*
D03*
X395000D02*
D03*
X525000Y465500D02*
D03*
X515000D02*
D03*
X505000D02*
D03*
X495000D02*
D03*
X485000D02*
D03*
X475000D02*
D03*
X465000D02*
D03*
X455000D02*
D03*
X445000D02*
D03*
X435000D02*
D03*
X425000D02*
D03*
X415000D02*
D03*
X405000D02*
D03*
X395000D02*
D03*
D21*
X195877Y358390D02*
D03*
X175877D02*
D03*
X517500Y489000D02*
D03*
X477500D02*
D03*
X463500D02*
D03*
X453500D02*
D03*
X237364Y446655D02*
D03*
X257364D02*
D03*
X235920Y356932D02*
D03*
X215920D02*
D03*
X237643Y479301D02*
D03*
X257643D02*
D03*
D22*
X123083Y396465D02*
D03*
X163241D02*
D03*
X203398D02*
D03*
X153398Y476465D02*
D03*
X173477D02*
D03*
X203398D02*
D03*
D23*
X135082Y324660D02*
D03*
Y304975D02*
D03*
D24*
X146893Y314030D02*
D03*
Y332927D02*
D03*
X120121Y328990D02*
D03*
Y314030D02*
D03*
D25*
X158389Y638047D02*
D03*
X176893D02*
D03*
X157835Y596312D02*
D03*
X176339D02*
D03*
X158213Y552414D02*
D03*
X176717D02*
D03*
D26*
X126340Y580610D02*
D03*
Y590453D02*
D03*
Y600295D02*
D03*
Y610138D02*
D03*
D27*
X453088Y310685D02*
D03*
X485372D02*
D03*
X452490Y344704D02*
D03*
X484774D02*
D03*
D28*
X461356Y310685D02*
D03*
X469230D02*
D03*
X477104D02*
D03*
X460758Y344704D02*
D03*
X468632D02*
D03*
X476506D02*
D03*
D29*
X266980Y547294D02*
D03*
Y537294D02*
D03*
X256980Y547294D02*
D03*
Y537294D02*
D03*
X246980Y547294D02*
D03*
Y537294D02*
D03*
X236980Y547294D02*
D03*
Y537294D02*
D03*
X226980Y547294D02*
D03*
Y537294D02*
D03*
D30*
X522849Y392845D02*
D03*
Y382845D02*
D03*
Y372845D02*
D03*
X505303Y392678D02*
D03*
Y382678D02*
D03*
Y372678D02*
D03*
X488498Y392149D02*
D03*
Y382149D02*
D03*
Y372149D02*
D03*
X469527Y392140D02*
D03*
Y382140D02*
D03*
Y372140D02*
D03*
D31*
X504761Y309063D02*
D03*
Y654801D02*
D03*
X126381Y646453D02*
D03*
X140520Y366359D02*
D03*
D32*
X291004Y302261D02*
D03*
X258635Y303566D02*
D03*
X226248Y302836D02*
D03*
X443213Y533046D02*
D03*
X213545Y596821D02*
D03*
M02*
