G04 Layer_Color=128*
%FSLAX25Y25*%
%MOIN*%
G70*
G01*
G75*
%ADD71C,0.00200*%
D71*
X310500Y408000D02*
X316500D01*
X313500Y405000D02*
Y411000D01*
X320500Y408000D02*
X326500D01*
X323500Y405000D02*
Y411000D01*
X300500Y408000D02*
X306500D01*
X303500Y405000D02*
Y411000D01*
X367531Y316000D02*
X371468D01*
X369500Y314032D02*
Y317969D01*
X357531Y316000D02*
X361469D01*
X359500Y314032D02*
Y317969D01*
X342531Y315500D02*
X346468D01*
X344500Y313531D02*
Y317469D01*
X332531Y315500D02*
X336469D01*
X334500Y313531D02*
Y317469D01*
X349400Y372000D02*
X352600D01*
X351000Y370400D02*
Y373600D01*
X349400Y392000D02*
X352600D01*
X351000Y390400D02*
Y393600D01*
X332400Y371500D02*
X335600D01*
X334000Y369900D02*
Y373100D01*
X332400Y391500D02*
X335600D01*
X334000Y389900D02*
Y393100D01*
X297900Y371500D02*
X301100D01*
X299500Y369900D02*
Y373100D01*
X297900Y391500D02*
X301100D01*
X299500Y389900D02*
Y393100D01*
X513500Y524500D02*
X526500D01*
X520000Y518000D02*
Y531000D01*
X513500Y583500D02*
X526500D01*
X520000Y577000D02*
Y590000D01*
X481400Y641500D02*
X484600D01*
X483000Y639900D02*
Y643100D01*
X481400Y661500D02*
X484600D01*
X483000Y659900D02*
Y663100D01*
X454531Y653000D02*
X458468D01*
X456500Y651031D02*
Y654969D01*
X464532Y653000D02*
X468469D01*
X466500Y651031D02*
Y654969D01*
X438400Y641000D02*
X441600D01*
X440000Y639400D02*
Y642600D01*
X438400Y661000D02*
X441600D01*
X440000Y659400D02*
Y662600D01*
X406032Y653500D02*
X409969D01*
X408000Y651532D02*
Y655469D01*
X416032Y653500D02*
X419969D01*
X418000Y651532D02*
Y655469D01*
X523032Y405500D02*
X526968D01*
X525000Y403532D02*
Y407469D01*
X513031Y405500D02*
X516968D01*
X515000Y403532D02*
Y407469D01*
X503031Y405500D02*
X506968D01*
X505000Y403532D02*
Y407469D01*
X493032Y405500D02*
X496969D01*
X495000Y403532D02*
Y407469D01*
X483032Y405500D02*
X486969D01*
X485000Y403532D02*
Y407469D01*
X473032Y405500D02*
X476968D01*
X475000Y403532D02*
Y407469D01*
X463031Y405500D02*
X466968D01*
X465000Y403532D02*
Y407469D01*
X453031Y405500D02*
X456968D01*
X455000Y403532D02*
Y407469D01*
X443032Y405500D02*
X446969D01*
X445000Y403532D02*
Y407469D01*
X433032Y405500D02*
X436969D01*
X435000Y403532D02*
Y407469D01*
X423032Y405500D02*
X426968D01*
X425000Y403532D02*
Y407469D01*
X413031Y405500D02*
X416968D01*
X415000Y403532D02*
Y407469D01*
X403031Y405500D02*
X406968D01*
X405000Y403532D02*
Y407469D01*
X393032Y405500D02*
X396969D01*
X395000Y403532D02*
Y407469D01*
X523032Y465500D02*
X526968D01*
X525000Y463531D02*
Y467469D01*
X513031Y465500D02*
X516968D01*
X515000Y463531D02*
Y467469D01*
X503031Y465500D02*
X506968D01*
X505000Y463531D02*
Y467469D01*
X493032Y465500D02*
X496969D01*
X495000Y463531D02*
Y467469D01*
X483032Y465500D02*
X486969D01*
X485000Y463531D02*
Y467469D01*
X473032Y465500D02*
X476968D01*
X475000Y463531D02*
Y467469D01*
X463031Y465500D02*
X466968D01*
X465000Y463531D02*
Y467469D01*
X453031Y465500D02*
X456968D01*
X455000Y463531D02*
Y467469D01*
X443032Y465500D02*
X446969D01*
X445000Y463531D02*
Y467469D01*
X433032Y465500D02*
X436969D01*
X435000Y463531D02*
Y467469D01*
X423032Y465500D02*
X426968D01*
X425000Y463531D02*
Y467469D01*
X413031Y465500D02*
X416968D01*
X415000Y463531D02*
Y467469D01*
X403031Y465500D02*
X406968D01*
X405000Y463531D02*
Y467469D01*
X393032Y465500D02*
X396969D01*
X395000Y463531D02*
Y467469D01*
X392400Y378500D02*
X395600D01*
X394000Y376900D02*
Y380100D01*
X392400Y338500D02*
X395600D01*
X394000Y336900D02*
Y340100D01*
X420900Y378000D02*
X424100D01*
X422500Y376400D02*
Y379600D01*
X420900Y338000D02*
X424100D01*
X422500Y336400D02*
Y339600D01*
X392900Y307000D02*
X396100D01*
X394500Y305400D02*
Y308600D01*
X392900Y317000D02*
X396100D01*
X394500Y315400D02*
Y318600D01*
X421400Y307000D02*
X424600D01*
X423000Y305400D02*
Y308600D01*
X421400Y317000D02*
X424600D01*
X423000Y315400D02*
Y318600D01*
X194277Y358390D02*
X197477D01*
X195877Y356790D02*
Y359990D01*
X174277Y358390D02*
X177477D01*
X175877Y356790D02*
Y359990D01*
X181705Y314260D02*
X185643D01*
X183674Y312292D02*
Y316229D01*
X171705Y314260D02*
X175643D01*
X173674Y312292D02*
Y316229D01*
X213683Y313861D02*
X217619D01*
X215651Y311893D02*
Y315829D01*
X203682Y313861D02*
X207620D01*
X205651Y311893D02*
Y315829D01*
X245234Y314305D02*
X249171D01*
X247203Y312336D02*
Y316273D01*
X235234Y314305D02*
X239172D01*
X237203Y312336D02*
Y316273D01*
X278116Y313418D02*
X282053D01*
X280085Y311450D02*
Y315387D01*
X268116Y313418D02*
X272054D01*
X270085Y311450D02*
Y315387D01*
X310111Y316068D02*
X314049D01*
X312080Y314100D02*
Y318037D01*
X300112Y316068D02*
X304048D01*
X302080Y314100D02*
Y318037D01*
X120327Y396465D02*
X125839D01*
X123083Y393709D02*
Y399221D01*
X160485Y396465D02*
X165997D01*
X163241Y393709D02*
Y399221D01*
X200642Y396465D02*
X206154D01*
X203398Y393709D02*
Y399221D01*
X150642Y476465D02*
X156154D01*
X153398Y473709D02*
Y479221D01*
X170721Y476465D02*
X176233D01*
X173477Y473709D02*
Y479221D01*
X200642Y476465D02*
X206154D01*
X203398Y473709D02*
Y479221D01*
X132916Y324660D02*
X137248D01*
X135082Y322495D02*
Y326825D01*
X132916Y304975D02*
X137248D01*
X135082Y302810D02*
Y307140D01*
X144728Y314030D02*
X149058D01*
X146893Y311864D02*
Y316196D01*
X144728Y332927D02*
X149058D01*
X146893Y330762D02*
Y335092D01*
X117956Y328990D02*
X122286D01*
X120121Y326824D02*
Y331155D01*
X117956Y314030D02*
X122286D01*
X120121Y311864D02*
Y316196D01*
X154059Y638047D02*
X162720D01*
X158389Y633716D02*
Y642378D01*
X172563Y638047D02*
X181223D01*
X176893Y633716D02*
Y642378D01*
X153505Y596312D02*
X162165D01*
X157835Y591982D02*
Y600642D01*
X172009Y596312D02*
X180669D01*
X176339Y591982D02*
Y600642D01*
X153883Y552414D02*
X162543D01*
X158213Y548083D02*
Y556744D01*
X172387Y552414D02*
X181047D01*
X176717Y548083D02*
Y556744D01*
X124568Y580610D02*
X128112D01*
X126340Y578838D02*
Y582381D01*
X124568Y590453D02*
X128112D01*
X126340Y588682D02*
Y592225D01*
X124568Y600295D02*
X128112D01*
X126340Y598524D02*
Y602067D01*
X124568Y610138D02*
X128112D01*
X126340Y608366D02*
Y611909D01*
X450135Y310685D02*
X456041D01*
X453088Y307732D02*
Y313638D01*
X482419Y310685D02*
X488325D01*
X485372Y307732D02*
Y313638D01*
X459781Y310685D02*
X462931D01*
X461356Y309110D02*
Y312260D01*
X467655Y310685D02*
X470805D01*
X469230Y309110D02*
Y312260D01*
X475529Y310685D02*
X478679D01*
X477104Y309110D02*
Y312260D01*
X449537Y344704D02*
X455443D01*
X452490Y341751D02*
Y347657D01*
X481821Y344704D02*
X487727D01*
X484774Y341751D02*
Y347657D01*
X459183Y344704D02*
X462333D01*
X460758Y343129D02*
Y346279D01*
X467057Y344704D02*
X470207D01*
X468632Y343129D02*
Y346279D01*
X474931Y344704D02*
X478081D01*
X476506Y343129D02*
Y346279D01*
X515900Y489000D02*
X519100D01*
X517500Y487400D02*
Y490600D01*
X475900Y489000D02*
X479100D01*
X477500Y487400D02*
Y490600D01*
X461900Y489000D02*
X465100D01*
X463500Y487400D02*
Y490600D01*
X451900Y489000D02*
X455100D01*
X453500Y487400D02*
Y490600D01*
X264980Y547294D02*
X268980D01*
X266980Y545294D02*
Y549294D01*
X264980Y537294D02*
X268980D01*
X266980Y535294D02*
Y539294D01*
X254980Y547294D02*
X258980D01*
X256980Y545294D02*
Y549294D01*
X254980Y537294D02*
X258980D01*
X256980Y535294D02*
Y539294D01*
X244980Y547294D02*
X248980D01*
X246980Y545294D02*
Y549294D01*
X244980Y537294D02*
X248980D01*
X246980Y535294D02*
Y539294D01*
X234980Y547294D02*
X238980D01*
X236980Y545294D02*
Y549294D01*
X234980Y537294D02*
X238980D01*
X236980Y535294D02*
Y539294D01*
X224980Y547294D02*
X228980D01*
X226980Y545294D02*
Y549294D01*
X224980Y537294D02*
X228980D01*
X226980Y535294D02*
Y539294D01*
X520849Y392845D02*
X524849D01*
X522849Y390845D02*
Y394845D01*
X520849Y382845D02*
X524849D01*
X522849Y380845D02*
Y384845D01*
X520849Y372845D02*
X524849D01*
X522849Y370845D02*
Y374845D01*
X503303Y392678D02*
X507303D01*
X505303Y390678D02*
Y394678D01*
X503303Y382678D02*
X507303D01*
X505303Y380678D02*
Y384678D01*
X503303Y372678D02*
X507303D01*
X505303Y370678D02*
Y374678D01*
X486498Y392149D02*
X490498D01*
X488498Y390149D02*
Y394149D01*
X486498Y382149D02*
X490498D01*
X488498Y380149D02*
Y384149D01*
X486498Y372149D02*
X490498D01*
X488498Y370149D02*
Y374149D01*
X467527Y392140D02*
X471527D01*
X469527Y390140D02*
Y394140D01*
X467527Y382140D02*
X471527D01*
X469527Y380140D02*
Y384140D01*
X467527Y372140D02*
X471527D01*
X469527Y370140D02*
Y374140D01*
X235764Y446655D02*
X238964D01*
X237364Y445055D02*
Y448255D01*
X255764Y446655D02*
X258964D01*
X257364Y445055D02*
Y448255D01*
X234320Y356932D02*
X237520D01*
X235920Y355332D02*
Y358532D01*
X214320Y356932D02*
X217520D01*
X215920Y355332D02*
Y358532D01*
X236043Y479301D02*
X239243D01*
X237643Y477701D02*
Y480901D01*
X256043Y479301D02*
X259243D01*
X257643Y477701D02*
Y480901D01*
X498265Y309063D02*
X511257D01*
X504761Y302567D02*
Y315559D01*
X498265Y654801D02*
X511257D01*
X504761Y648305D02*
Y661297D01*
X119885Y646453D02*
X132877D01*
X126381Y639957D02*
Y652949D01*
X134024Y366359D02*
X147016D01*
X140520Y359863D02*
Y372855D01*
X289823Y302261D02*
X292185D01*
X291004Y301080D02*
Y303442D01*
X257454Y303566D02*
X259816D01*
X258635Y302385D02*
Y304747D01*
X225067Y302836D02*
X227429D01*
X226248Y301655D02*
Y304017D01*
X442032Y533046D02*
X444394D01*
X443213Y531865D02*
Y534227D01*
X212364Y596821D02*
X214726D01*
X213545Y595640D02*
Y598002D01*
M02*
