G04 Layer_Color=2752767*
%FSLAX25Y25*%
%MOIN*%
G70*
G01*
G75*
%ADD71C,0.00200*%
%ADD72C,0.00267*%
%ADD73C,0.00133*%
D71*
X312700Y407200D02*
Y408800D01*
X314300D01*
Y407200D01*
X312700D01*
X322700D02*
Y408800D01*
X324300D01*
Y407200D01*
X322700D01*
X302700D02*
Y408800D01*
X304300D01*
Y407200D01*
X302700D01*
X351000Y371200D02*
X350200Y372800D01*
X351800D01*
X351000Y371200D01*
Y391200D02*
X350200Y392800D01*
X351800D01*
X351000Y391200D01*
X334000Y370700D02*
X333200Y372300D01*
X334800D01*
X334000Y370700D01*
Y390700D02*
X333200Y392300D01*
X334800D01*
X334000Y390700D01*
X299500Y370700D02*
X298700Y372300D01*
X300300D01*
X299500Y370700D01*
Y390700D02*
X298700Y392300D01*
X300300D01*
X299500Y390700D01*
X520000Y523700D02*
X520400Y524100D01*
X520800D01*
X520400Y524500D01*
X520800Y524900D01*
X520400D01*
X520000Y525300D01*
X519600Y524900D01*
X519200D01*
X519600Y524500D01*
X519200Y524100D01*
X519600D01*
X520000Y523700D01*
Y582700D02*
X520400Y583100D01*
X520800D01*
X520400Y583500D01*
X520800Y583900D01*
X520400D01*
X520000Y584300D01*
X519600Y583900D01*
X519200D01*
X519600Y583500D01*
X519200Y583100D01*
X519600D01*
X520000Y582700D01*
X483000Y640700D02*
X482200Y642300D01*
X483800D01*
X483000Y640700D01*
Y660700D02*
X482200Y662300D01*
X483800D01*
X483000Y660700D01*
X440000Y640200D02*
X439200Y641800D01*
X440800D01*
X440000Y640200D01*
Y660200D02*
X439200Y661800D01*
X440800D01*
X440000Y660200D01*
X394000Y377700D02*
X393200Y379300D01*
X394800D01*
X394000Y377700D01*
Y337700D02*
X393200Y339300D01*
X394800D01*
X394000Y337700D01*
X422500Y377200D02*
X421700Y378800D01*
X423300D01*
X422500Y377200D01*
Y337200D02*
X421700Y338800D01*
X423300D01*
X422500Y337200D01*
X394500Y306200D02*
X393700Y307800D01*
X395300D01*
X394500Y306200D01*
Y316200D02*
X393700Y317800D01*
X395300D01*
X394500Y316200D01*
X423000Y306200D02*
X422200Y307800D01*
X423800D01*
X423000Y306200D01*
Y316200D02*
X422200Y317800D01*
X423800D01*
X423000Y316200D01*
X195877Y357590D02*
X195077Y359190D01*
X196677D01*
X195877Y357590D01*
X175877D02*
X175077Y359190D01*
X176677D01*
X175877Y357590D01*
X122283Y395665D02*
X122683Y396465D01*
X122283Y397265D01*
X123083Y396865D01*
X123883Y397265D01*
X123483Y396465D01*
X123883Y395665D01*
X123083Y396065D01*
X122283Y395665D01*
X162441D02*
X162841Y396465D01*
X162441Y397265D01*
X163241Y396865D01*
X164041Y397265D01*
X163641Y396465D01*
X164041Y395665D01*
X163241Y396065D01*
X162441Y395665D01*
X202598D02*
X202998Y396465D01*
X202598Y397265D01*
X203398Y396865D01*
X204198Y397265D01*
X203798Y396465D01*
X204198Y395665D01*
X203398Y396065D01*
X202598Y395665D01*
X152598Y475665D02*
X152998Y476465D01*
X152598Y477265D01*
X153398Y476865D01*
X154198Y477265D01*
X153798Y476465D01*
X154198Y475665D01*
X153398Y476065D01*
X152598Y475665D01*
X172677D02*
X173077Y476465D01*
X172677Y477265D01*
X173477Y476865D01*
X174277Y477265D01*
X173877Y476465D01*
X174277Y475665D01*
X173477Y476065D01*
X172677Y475665D01*
X202598D02*
X202998Y476465D01*
X202598Y477265D01*
X203398Y476865D01*
X204198Y477265D01*
X203798Y476465D01*
X204198Y475665D01*
X203398Y476065D01*
X202598Y475665D01*
X134682Y324260D02*
Y323860D01*
X135482D01*
Y324260D01*
X135882D01*
Y325060D01*
X135482D01*
Y325460D01*
X134682D01*
Y325060D01*
X134282D01*
Y324260D01*
X134682D01*
Y304575D02*
Y304175D01*
X135482D01*
Y304575D01*
X135882D01*
Y305375D01*
X135482D01*
Y305775D01*
X134682D01*
Y305375D01*
X134282D01*
Y304575D01*
X134682D01*
X146493Y313630D02*
Y313230D01*
X147293D01*
Y313630D01*
X147693D01*
Y314430D01*
X147293D01*
Y314830D01*
X146493D01*
Y314430D01*
X146093D01*
Y313630D01*
X146493D01*
Y332527D02*
Y332127D01*
X147293D01*
Y332527D01*
X147693D01*
Y333327D01*
X147293D01*
Y333727D01*
X146493D01*
Y333327D01*
X146093D01*
Y332527D01*
X146493D01*
X119721Y328590D02*
Y328190D01*
X120521D01*
Y328590D01*
X120921D01*
Y329390D01*
X120521D01*
Y329790D01*
X119721D01*
Y329390D01*
X119321D01*
Y328590D01*
X119721D01*
Y313630D02*
Y313230D01*
X120521D01*
Y313630D01*
X120921D01*
Y314430D01*
X120521D01*
Y314830D01*
X119721D01*
Y314430D01*
X119321D01*
Y313630D01*
X119721D01*
X157589Y637247D02*
X157989D01*
X158389Y637647D01*
X158789Y637247D01*
X159189D01*
Y637647D01*
X158789Y638047D01*
X159189Y638447D01*
Y638847D01*
X158789D01*
X158389Y638447D01*
X157989Y638847D01*
X157589D01*
Y638447D01*
X157989Y638047D01*
X157589Y637647D01*
Y637247D01*
X176093D02*
X176493D01*
X176893Y637647D01*
X177293Y637247D01*
X177693D01*
Y637647D01*
X177293Y638047D01*
X177693Y638447D01*
Y638847D01*
X177293D01*
X176893Y638447D01*
X176493Y638847D01*
X176093D01*
Y638447D01*
X176493Y638047D01*
X176093Y637647D01*
Y637247D01*
X157035Y595512D02*
X157435D01*
X157835Y595912D01*
X158235Y595512D01*
X158635D01*
Y595912D01*
X158235Y596312D01*
X158635Y596712D01*
Y597112D01*
X158235D01*
X157835Y596712D01*
X157435Y597112D01*
X157035D01*
Y596712D01*
X157435Y596312D01*
X157035Y595912D01*
Y595512D01*
X175539D02*
X175939D01*
X176339Y595912D01*
X176739Y595512D01*
X177139D01*
Y595912D01*
X176739Y596312D01*
X177139Y596712D01*
Y597112D01*
X176739D01*
X176339Y596712D01*
X175939Y597112D01*
X175539D01*
Y596712D01*
X175939Y596312D01*
X175539Y595912D01*
Y595512D01*
X157413Y551614D02*
X157813D01*
X158213Y552014D01*
X158613Y551614D01*
X159013D01*
Y552014D01*
X158613Y552414D01*
X159013Y552814D01*
Y553214D01*
X158613D01*
X158213Y552814D01*
X157813Y553214D01*
X157413D01*
Y552814D01*
X157813Y552414D01*
X157413Y552014D01*
Y551614D01*
X175917D02*
X176317D01*
X176717Y552014D01*
X177117Y551614D01*
X177517D01*
Y552014D01*
X177117Y552414D01*
X177517Y552814D01*
Y553214D01*
X177117D01*
X176717Y552814D01*
X176317Y553214D01*
X175917D01*
Y552814D01*
X176317Y552414D01*
X175917Y552014D01*
Y551614D01*
X125540Y580610D02*
X126340Y581410D01*
X127140Y580610D01*
X126340Y579810D01*
X125540Y580610D01*
Y590453D02*
X126340Y591253D01*
X127140Y590453D01*
X126340Y589653D01*
X125540Y590453D01*
Y600295D02*
X126340Y601095D01*
X127140Y600295D01*
X126340Y599495D01*
X125540Y600295D01*
Y610138D02*
X126340Y610938D01*
X127140Y610138D01*
X126340Y609338D01*
X125540Y610138D01*
X452288Y309885D02*
Y311485D01*
X453888D01*
Y309885D01*
X452288D01*
X452688Y310285D02*
Y311085D01*
X453488D01*
Y310285D01*
X452688D01*
X484572Y309885D02*
Y311485D01*
X486172D01*
Y309885D01*
X484572D01*
X484972Y310285D02*
Y311085D01*
X485772D01*
Y310285D01*
X484972D01*
X451690Y343904D02*
Y345504D01*
X453290D01*
Y343904D01*
X451690D01*
X452090Y344304D02*
Y345104D01*
X452890D01*
Y344304D01*
X452090D01*
X483974Y343904D02*
Y345504D01*
X485574D01*
Y343904D01*
X483974D01*
X484374Y344304D02*
Y345104D01*
X485174D01*
Y344304D01*
X484374D01*
X517500Y488200D02*
X516700Y489800D01*
X518300D01*
X517500Y488200D01*
X477500D02*
X476700Y489800D01*
X478300D01*
X477500Y488200D01*
X463500D02*
X462700Y489800D01*
X464300D01*
X463500Y488200D01*
X453500D02*
X452700Y489800D01*
X454300D01*
X453500Y488200D01*
X266980Y546494D02*
X266180Y548094D01*
X267780D01*
X266980Y546494D01*
Y546894D02*
X266580Y547694D01*
X267380D01*
X266980Y546894D01*
Y536494D02*
X266180Y538094D01*
X267780D01*
X266980Y536494D01*
Y536894D02*
X266580Y537694D01*
X267380D01*
X266980Y536894D01*
X256980Y546494D02*
X256180Y548094D01*
X257780D01*
X256980Y546494D01*
Y546894D02*
X256580Y547694D01*
X257380D01*
X256980Y546894D01*
Y536494D02*
X256180Y538094D01*
X257780D01*
X256980Y536494D01*
Y536894D02*
X256580Y537694D01*
X257380D01*
X256980Y536894D01*
X246980Y546494D02*
X246180Y548094D01*
X247780D01*
X246980Y546494D01*
Y546894D02*
X246580Y547694D01*
X247380D01*
X246980Y546894D01*
Y536494D02*
X246180Y538094D01*
X247780D01*
X246980Y536494D01*
Y536894D02*
X246580Y537694D01*
X247380D01*
X246980Y536894D01*
X236980Y546494D02*
X236180Y548094D01*
X237780D01*
X236980Y546494D01*
Y546894D02*
X236580Y547694D01*
X237380D01*
X236980Y546894D01*
Y536494D02*
X236180Y538094D01*
X237780D01*
X236980Y536494D01*
Y536894D02*
X236580Y537694D01*
X237380D01*
X236980Y536894D01*
X226980Y546494D02*
X226180Y548094D01*
X227780D01*
X226980Y546494D01*
Y546894D02*
X226580Y547694D01*
X227380D01*
X226980Y546894D01*
Y536494D02*
X226180Y538094D01*
X227780D01*
X226980Y536494D01*
Y536894D02*
X226580Y537694D01*
X227380D01*
X226980Y536894D01*
X522849Y392045D02*
X522049Y393645D01*
X523649D01*
X522849Y392045D01*
Y392445D02*
X522449Y393245D01*
X523249D01*
X522849Y392445D01*
Y382045D02*
X522049Y383645D01*
X523649D01*
X522849Y382045D01*
Y382445D02*
X522449Y383245D01*
X523249D01*
X522849Y382445D01*
Y372045D02*
X522049Y373645D01*
X523649D01*
X522849Y372045D01*
Y372445D02*
X522449Y373245D01*
X523249D01*
X522849Y372445D01*
X505303Y391878D02*
X504503Y393478D01*
X506103D01*
X505303Y391878D01*
Y392278D02*
X504903Y393078D01*
X505703D01*
X505303Y392278D01*
Y381878D02*
X504503Y383478D01*
X506103D01*
X505303Y381878D01*
Y382278D02*
X504903Y383078D01*
X505703D01*
X505303Y382278D01*
Y371878D02*
X504503Y373478D01*
X506103D01*
X505303Y371878D01*
Y372278D02*
X504903Y373078D01*
X505703D01*
X505303Y372278D01*
X488498Y391349D02*
X487698Y392949D01*
X489298D01*
X488498Y391349D01*
Y391749D02*
X488098Y392549D01*
X488898D01*
X488498Y391749D01*
Y381349D02*
X487698Y382949D01*
X489298D01*
X488498Y381349D01*
Y381749D02*
X488098Y382549D01*
X488898D01*
X488498Y381749D01*
Y371349D02*
X487698Y372949D01*
X489298D01*
X488498Y371349D01*
Y371749D02*
X488098Y372549D01*
X488898D01*
X488498Y371749D01*
X469527Y391340D02*
X468727Y392940D01*
X470327D01*
X469527Y391340D01*
Y391740D02*
X469127Y392540D01*
X469927D01*
X469527Y391740D01*
Y381340D02*
X468727Y382940D01*
X470327D01*
X469527Y381340D01*
Y381740D02*
X469127Y382540D01*
X469927D01*
X469527Y381740D01*
Y371340D02*
X468727Y372940D01*
X470327D01*
X469527Y371340D01*
Y371740D02*
X469127Y372540D01*
X469927D01*
X469527Y371740D01*
X237364Y445855D02*
X236564Y447455D01*
X238164D01*
X237364Y445855D01*
X257364D02*
X256564Y447455D01*
X258164D01*
X257364Y445855D01*
X235920Y356132D02*
X235120Y357732D01*
X236720D01*
X235920Y356132D01*
X215920D02*
X215120Y357732D01*
X216720D01*
X215920Y356132D01*
X237643Y478501D02*
X236843Y480101D01*
X238443D01*
X237643Y478501D01*
X257643D02*
X256843Y480101D01*
X258443D01*
X257643Y478501D01*
X504761Y308263D02*
X505161Y308663D01*
X505561D01*
X505161Y309063D01*
X505561Y309463D01*
X505161D01*
X504761Y309863D01*
X504361Y309463D01*
X503961D01*
X504361Y309063D01*
X503961Y308663D01*
X504361D01*
X504761Y308263D01*
Y308663D02*
X504961Y308863D01*
X505161D01*
X504961Y309063D01*
X505161Y309263D01*
X504961D01*
X504761Y309463D01*
X504561Y309263D01*
X504361D01*
X504561Y309063D01*
X504361Y308863D01*
X504561D01*
X504761Y308663D01*
Y654001D02*
X505161Y654401D01*
X505561D01*
X505161Y654801D01*
X505561Y655201D01*
X505161D01*
X504761Y655601D01*
X504361Y655201D01*
X503961D01*
X504361Y654801D01*
X503961Y654401D01*
X504361D01*
X504761Y654001D01*
Y654401D02*
X504961Y654601D01*
X505161D01*
X504961Y654801D01*
X505161Y655001D01*
X504961D01*
X504761Y655201D01*
X504561Y655001D01*
X504361D01*
X504561Y654801D01*
X504361Y654601D01*
X504561D01*
X504761Y654401D01*
X126381Y645653D02*
X126781Y646053D01*
X127181D01*
X126781Y646453D01*
X127181Y646853D01*
X126781D01*
X126381Y647253D01*
X125981Y646853D01*
X125581D01*
X125981Y646453D01*
X125581Y646053D01*
X125981D01*
X126381Y645653D01*
Y646053D02*
X126581Y646253D01*
X126781D01*
X126581Y646453D01*
X126781Y646653D01*
X126581D01*
X126381Y646853D01*
X126181Y646653D01*
X125981D01*
X126181Y646453D01*
X125981Y646253D01*
X126181D01*
X126381Y646053D01*
X140520Y365559D02*
X140920Y365959D01*
X141320D01*
X140920Y366359D01*
X141320Y366759D01*
X140920D01*
X140520Y367159D01*
X140120Y366759D01*
X139720D01*
X140120Y366359D01*
X139720Y365959D01*
X140120D01*
X140520Y365559D01*
Y365959D02*
X140720Y366159D01*
X140920D01*
X140720Y366359D01*
X140920Y366559D01*
X140720D01*
X140520Y366759D01*
X140320Y366559D01*
X140120D01*
X140320Y366359D01*
X140120Y366159D01*
X140320D01*
X140520Y365959D01*
X290204Y301461D02*
X290604Y302261D01*
X290204Y303061D01*
X291004Y302661D01*
X291804Y303061D01*
X291404Y302261D01*
X291804Y301461D01*
X291004Y301861D01*
X290204Y301461D01*
X290604Y301861D02*
X290804Y302261D01*
X290604Y302661D01*
X291004Y302461D01*
X291404Y302661D01*
X291204Y302261D01*
X291404Y301861D01*
X291004Y302061D01*
X290604Y301861D01*
X257835Y302766D02*
X258235Y303566D01*
X257835Y304366D01*
X258635Y303966D01*
X259435Y304366D01*
X259035Y303566D01*
X259435Y302766D01*
X258635Y303166D01*
X257835Y302766D01*
X258235Y303166D02*
X258435Y303566D01*
X258235Y303966D01*
X258635Y303766D01*
X259035Y303966D01*
X258835Y303566D01*
X259035Y303166D01*
X258635Y303366D01*
X258235Y303166D01*
X225448Y302036D02*
X225848Y302836D01*
X225448Y303636D01*
X226248Y303236D01*
X227048Y303636D01*
X226648Y302836D01*
X227048Y302036D01*
X226248Y302436D01*
X225448Y302036D01*
X225848Y302436D02*
X226048Y302836D01*
X225848Y303236D01*
X226248Y303036D01*
X226648Y303236D01*
X226448Y302836D01*
X226648Y302436D01*
X226248Y302636D01*
X225848Y302436D01*
X442413Y532246D02*
X442813Y533046D01*
X442413Y533846D01*
X443213Y533446D01*
X444013Y533846D01*
X443613Y533046D01*
X444013Y532246D01*
X443213Y532646D01*
X442413Y532246D01*
X442813Y532646D02*
X443013Y533046D01*
X442813Y533446D01*
X443213Y533246D01*
X443613Y533446D01*
X443413Y533046D01*
X443613Y532646D01*
X443213Y532846D01*
X442813Y532646D01*
X212745Y596021D02*
X213145Y596821D01*
X212745Y597621D01*
X213545Y597221D01*
X214345Y597621D01*
X213945Y596821D01*
X214345Y596021D01*
X213545Y596421D01*
X212745Y596021D01*
X213145Y596421D02*
X213345Y596821D01*
X213145Y597221D01*
X213545Y597021D01*
X213945Y597221D01*
X213745Y596821D01*
X213945Y596421D01*
X213545Y596621D01*
X213145Y596421D01*
D72*
X370300Y316000D02*
G03*
X370300Y316000I-800J0D01*
G01*
X360300D02*
G03*
X360300Y316000I-800J0D01*
G01*
X345300Y315500D02*
G03*
X345300Y315500I-800J0D01*
G01*
X335300D02*
G03*
X335300Y315500I-800J0D01*
G01*
X457300Y653000D02*
G03*
X457300Y653000I-800J0D01*
G01*
X467300D02*
G03*
X467300Y653000I-800J0D01*
G01*
X408800Y653500D02*
G03*
X408800Y653500I-800J0D01*
G01*
X418800D02*
G03*
X418800Y653500I-800J0D01*
G01*
X525800Y405500D02*
G03*
X525800Y405500I-800J0D01*
G01*
X515800D02*
G03*
X515800Y405500I-800J0D01*
G01*
X505800D02*
G03*
X505800Y405500I-800J0D01*
G01*
X495800D02*
G03*
X495800Y405500I-800J0D01*
G01*
X485800D02*
G03*
X485800Y405500I-800J0D01*
G01*
X475800D02*
G03*
X475800Y405500I-800J0D01*
G01*
X465800D02*
G03*
X465800Y405500I-800J0D01*
G01*
X455800D02*
G03*
X455800Y405500I-800J0D01*
G01*
X445800D02*
G03*
X445800Y405500I-800J0D01*
G01*
X435800D02*
G03*
X435800Y405500I-800J0D01*
G01*
X425800D02*
G03*
X425800Y405500I-800J0D01*
G01*
X415800D02*
G03*
X415800Y405500I-800J0D01*
G01*
X405800D02*
G03*
X405800Y405500I-800J0D01*
G01*
X395800D02*
G03*
X395800Y405500I-800J0D01*
G01*
X525800Y465500D02*
G03*
X525800Y465500I-800J0D01*
G01*
X515800D02*
G03*
X515800Y465500I-800J0D01*
G01*
X505800D02*
G03*
X505800Y465500I-800J0D01*
G01*
X495800D02*
G03*
X495800Y465500I-800J0D01*
G01*
X485800D02*
G03*
X485800Y465500I-800J0D01*
G01*
X475800D02*
G03*
X475800Y465500I-800J0D01*
G01*
X465800D02*
G03*
X465800Y465500I-800J0D01*
G01*
X455800D02*
G03*
X455800Y465500I-800J0D01*
G01*
X445800D02*
G03*
X445800Y465500I-800J0D01*
G01*
X435800D02*
G03*
X435800Y465500I-800J0D01*
G01*
X425800D02*
G03*
X425800Y465500I-800J0D01*
G01*
X415800D02*
G03*
X415800Y465500I-800J0D01*
G01*
X405800D02*
G03*
X405800Y465500I-800J0D01*
G01*
X395800D02*
G03*
X395800Y465500I-800J0D01*
G01*
X184474Y314260D02*
G03*
X184474Y314260I-800J0D01*
G01*
X174474D02*
G03*
X174474Y314260I-800J0D01*
G01*
X216451Y313861D02*
G03*
X216451Y313861I-800J0D01*
G01*
X206451D02*
G03*
X206451Y313861I-800J0D01*
G01*
X248003Y314305D02*
G03*
X248003Y314305I-800J0D01*
G01*
X238003D02*
G03*
X238003Y314305I-800J0D01*
G01*
X280885Y313418D02*
G03*
X280885Y313418I-800J0D01*
G01*
X270885D02*
G03*
X270885Y313418I-800J0D01*
G01*
X312880Y316068D02*
G03*
X312880Y316068I-800J0D01*
G01*
X302880D02*
G03*
X302880Y316068I-800J0D01*
G01*
X462156Y310685D02*
G03*
X462156Y310685I-800J0D01*
G01*
X470030D02*
G03*
X470030Y310685I-800J0D01*
G01*
X477904D02*
G03*
X477904Y310685I-800J0D01*
G01*
X461558Y344704D02*
G03*
X461558Y344704I-800J0D01*
G01*
X469432D02*
G03*
X469432Y344704I-800J0D01*
G01*
X477306D02*
G03*
X477306Y344704I-800J0D01*
G01*
D73*
X461756Y310685D02*
G03*
X461756Y310685I-400J0D01*
G01*
X469630D02*
G03*
X469630Y310685I-400J0D01*
G01*
X477504D02*
G03*
X477504Y310685I-400J0D01*
G01*
X461158Y344704D02*
G03*
X461158Y344704I-400J0D01*
G01*
X469032D02*
G03*
X469032Y344704I-400J0D01*
G01*
X476906D02*
G03*
X476906Y344704I-400J0D01*
G01*
M02*
